<svg xmlns="http://www.w3.org/2000/svg" width="341.874" height="79.946" viewBox="0 0 341.874 79.946">
  <g id="logo" transform="translate(-245 757)">
    <path id="路径_1" data-name="路径 1" d="M245-719.594c.238-1.6.439-3.2.719-4.793a40.089,40.089,0,0,1,31.943-31.9c1.592-.279,3.2-.48,4.8-.717h5.148c1.572.233,3.164.373,4.712.714,16.517,3.635,27.339,13.563,31.53,29.89,5.07,19.75-5.97,39.881-25.107,46.906-23.125,8.488-48.644-6.064-53.034-30.252-.283-1.561-.474-3.139-.707-4.71Zm79.159,2.618a39.156,39.156,0,0,0-38.833-39.1,39.078,39.078,0,0,0-39.4,38.777,39.092,39.092,0,0,0,38.945,39.323A39.186,39.186,0,0,0,324.159-716.976Z" transform="translate(0 0)" fill="#fff"/>
    <path id="路径_2" data-name="路径 2" d="M1313.248-689.119c.3-.041.6-.072.9-.126,2.552-.459,5.1-.943,7.656-1.375a2.248,2.248,0,0,0,1.818-1.711,10.763,10.763,0,0,1,3.086-4.779,2.413,2.413,0,0,1,3.089-.132c.579.543,1.142,1.1,1.727,1.64.229.211.5.378.819.617.24-.372.424-.664.615-.953a2.149,2.149,0,0,1,2-1.214.919.919,0,0,0,.48-.162,3.681,3.681,0,0,1,4.167.247,2.683,2.683,0,0,0,.249-.842c-.038-.767-.169-1.529-.236-2.295a21.114,21.114,0,0,1-.14-2.362c.027-1.021.143-2.041.24-3.059a3.191,3.191,0,0,1,2.969-2.485.367.367,0,0,1,.243.091c.747,1,1.494,1.994,2.217,3.008.108.151.036.452.158.569a5.067,5.067,0,0,1,1.125,2.909,1.23,1.23,0,0,1-.005.511c-.286,1.285-.631,2.559-.857,3.854-.107.616-.123,1.161-.821,1.454a.938.938,0,0,0-.144.882,42.121,42.121,0,0,0,2.969,3.69c1.218,1.3,2.934,1.808,4.535,2.451a1.59,1.59,0,0,1,1.1,1.712c-.043.938-.621,1.717-1.447,1.593a6.512,6.512,0,0,0-4.027,1.081c-1.047.525-2.1,1.033-2.9,1.426,0,1.934,0,3.608,0,5.281,0,.2.1.4.091.595-.01.375.081.882-.122,1.1-.617.661-.323,1.371-.306,2.079a1.556,1.556,0,0,1-.122.815,3.034,3.034,0,0,0-.321,2.186c.094.636.208,1.314-.664,1.607a.786.786,0,0,0-.355.613c-.018.959.053,1.92.037,2.88a4.881,4.881,0,0,1-.227,1.536c-.092.261-.507.606-.727.574a1.127,1.127,0,0,1-.776-.654c-.31-1.119-.46-2.282-.769-3.4-.261-.95-.713-1.847-.984-2.794-.351-1.223-.649-2.464-.891-3.713-.31-1.6-.541-3.215-.851-5.1-1.751,1.407-3.412,2.653-4.96,4.026-.663.588-1.136,1.018-1.917.26-.172-.167-.578-.112-.722-.286a2.433,2.433,0,0,1-.6-1.128c-.077-.608.128-1.251.052-1.859-.174-1.4.207-2.569,1.436-3.045a2.7,2.7,0,0,0,1.565-1.769,7.978,7.978,0,0,1,1.436-2.134c.379-.487.42-.808-.056-1.179a4.217,4.217,0,0,1-1.415-3.481,3.911,3.911,0,0,1,1-1.969c.47-.649,1.14-1.153,1.62-1.8.423-.568.128-1.064-.574-1.133a1.557,1.557,0,0,0-1.9,1.378A3.526,3.526,0,0,1,1332-691.9a12.331,12.331,0,0,0-2.346,3.277,21.747,21.747,0,0,1-4.937,6.863,2.611,2.611,0,0,0-.667,1.285,11.956,11.956,0,0,0,.55,7.294,2.838,2.838,0,0,1,.176,1.524c-.184.895-.715,1.068-1.512.62a4.691,4.691,0,0,1-2.327-3.842c-.052-.439,0-.894-.092-1.323-.164-.776-.778-.971-1.352-.436a16.176,16.176,0,0,1-7.248,3.533c-1.654.433-2.659-.349-2.705-2.064-.03-1.1.02-2.209.089-3.31a1.427,1.427,0,0,1,.4-.759q3.36-3.769,6.752-7.51a10.122,10.122,0,0,1,1.15-.939c-.2-.135-.28-.235-.335-.222-1.281.3-2.55.671-3.842.921a28.3,28.3,0,0,1-3.235.389c-.6.045-.684-.4-.662-.907a3.944,3.944,0,0,1,1.858-3.224,72.753,72.753,0,0,0,11.767-10.994,3.954,3.954,0,0,0,.743-1.905c.137-.826.731-1.708,1.591-1.658a11.9,11.9,0,0,1,2.892.62c.606.194.688.7.368,1.3a15.461,15.461,0,0,1-3.99,4.589c-3.064,2.508-6.193,4.939-9.311,7.382-.645.506-1.371.907-2.035,1.391a4.019,4.019,0,0,0-.6.68Zm11,3.625.295.254a13.667,13.667,0,0,0,1.864-1.7,5.039,5.039,0,0,1,2.031-1.885c.224-.09.35-.422.52-.643-.284-.188-.566-.532-.852-.534a11.571,11.571,0,0,0-2.184.239,1.123,1.123,0,0,0-.708.447A6.493,6.493,0,0,0,1324.247-685.494Zm-7.7,6.084a6.826,6.826,0,0,0,.906-.288,12.242,12.242,0,0,0,1.593-.847,5.738,5.738,0,0,0,1.894-1.509c.315-.548.065-1.422.065-2.462A18.955,18.955,0,0,0,1316.544-679.411Zm30.384-7.521c-.624-.912-1.2-1.782-1.814-2.626a.7.7,0,0,0-.536-.181c-.076,0-.2.269-.2.414q.007,1.279.069,2.558c.022.455.245.752.746.572C1345.733-686.391,1346.253-686.642,1346.928-686.932Zm-7.66-5.7-3.054,2.554,2.712.775C1339.026-690.281,1339.135-691.338,1339.268-692.627Zm-13.222.436.122.259c.306-.057.684-.02.905-.188a12.394,12.394,0,0,0,1.489-1.395,1.878,1.878,0,0,0,.245-.66,2.238,2.238,0,0,0-.718-.159C1326.791-694.174,1326.773-692.868,1326.046-692.191Zm-3.99,2.958c-.279.067-.5.115-.717.172-.358.095-.715.2-1.072.294a10.36,10.36,0,0,0,1.038.4C1322.136-688.145,1322.274-688.3,1322.056-689.232Z" transform="translate(-842.755 -38.702)" fill="#fff"/>
    <path id="路径_3" data-name="路径 3" d="M691.783-685.858a5.378,5.378,0,0,0-3.365,1.125,7.588,7.588,0,0,1-2.246.964c-1.5.6-3,1.2-4.5,1.777-.6.229-1.245.361-1.856.572-1.742.6-4.1-.9-4.512-2.924a6.246,6.246,0,0,0-.462-1.416,1.76,1.76,0,0,1,.344-2.051,1.879,1.879,0,0,1,1.4-.352c1.147.126,2.271.486,3.418.57a10.286,10.286,0,0,0,2.482-.285q2.216-.391,4.417-.864c.451-.1.864-.36,1.313-.477a2.981,2.981,0,0,1,2.357.018c.334.176,1.011-.3,1.45-.444.154-1.379.224-2.7.469-3.989.221-1.162.67-2.28.929-3.437a.96.96,0,0,0-.457-.814,1.358,1.358,0,0,0-.962.205c-.172.092-.237.393-.341.6-.442.9-.869,1.808-1.325,2.7-.17.334-.4.636-.733,1.147-.523-.7-.951-1.276-1.375-1.852-.632-.859-1.277-1.71-1.886-2.585a6.434,6.434,0,0,1-1.209-4.025c.047-1.176,0-2.357.1-3.528a35.712,35.712,0,0,1,.5-3.837c.331-1.73.761-3.44,1.158-5.157a10.255,10.255,0,0,1,.444-1.614.908.908,0,0,1,.652-.472.982.982,0,0,1,.7.4c.6.823,1.151,1.682,1.72,2.529a1.763,1.763,0,0,1,.149.219c.462.984.85,2.012,1.4,2.944a6.032,6.032,0,0,1,.562,3.148c.02,1.128.146,1.317,1.275,1.478.738.106.924-.1.8-.859a1.8,1.8,0,0,1-.025-.439c.245-2.953.484-5.907.752-8.858a11,11,0,0,1,.347-1.819,1.207,1.207,0,0,1,1.528-.848A2.25,2.25,0,0,1,699-715.8c-.166,1.427-.323,2.857-.442,4.289-.054.655-.009,1.318-.009,2.176.427-.218.927-.5,1.449-.733.544-.242,1.105-.445,1.665-.648.348-.126.709-.215,1.061-.333.164-.055.314-.16.48-.2a5.1,5.1,0,0,1,5.408,2.637,10.355,10.355,0,0,0,.794,1.266c-.7.576-.4,1.345-.468,2.112A5.044,5.044,0,0,1,707.5-702.2c-1.339,1.233-2.044,2.99-3.433,4.057-1.41,1.083-3.045,2.039-5.035,1.513-2.883-.763-3.054-.625-3.706,2.3-.255,1.142-.685,2.245-1.02,3.37-.1.326-.143.668-.227,1.075,1.509-.554,2.9-1.08,4.3-1.573a6.508,6.508,0,0,1,1.6-.406c.546-.044.773-.208.834-.775.085-.8.568-1.07,1.212-.555,1.181.944,2.283.75,3.633.377a8.382,8.382,0,0,1,8.055,1.712c.6.515.017,2.017-.811,2.414a3.855,3.855,0,0,1-4.159-.244,4.27,4.27,0,0,0-1.509-.3c-.663-.129-1.334-.236-1.985-.412-.668-.181-1.1.028-1.115.706a6.433,6.433,0,0,1-2.175,4.289c-.536.576-.964,1.251-1.473,1.924a2.288,2.288,0,0,0,.365.34,35.439,35.439,0,0,1,3.86,2.305,6.446,6.446,0,0,1,2.307,3.488,1.065,1.065,0,0,1-.52.868,1.876,1.876,0,0,1-2.264-.253c-1.616-1.421-3.359-2.7-5.037-4.048-.566-.456-.977-.357-1.547.088a19.63,19.63,0,0,1-3.7,2.516,4.941,4.941,0,0,1-5.726-1.079,4.6,4.6,0,0,0-1.58-.853c-.755-.263-1.938-1.975-1.638-2.671a1.1,1.1,0,0,1,.982-.406,18.948,18.948,0,0,1,2.289.876,7.027,7.027,0,0,0,6-.119c.52-.258.674-.564.119-.973a8.184,8.184,0,0,1-1.513-1.212A12.609,12.609,0,0,1,691.783-685.858Zm4.643-15.359c-.026,1.308.3,1.565,1.387,1.227.618-.192,1.209-.47,1.82-.687a3.733,3.733,0,0,0,2.69-2.572.986.986,0,0,1,.171-.3c.444-.617.926-1.211,1.316-1.86a.788.788,0,0,0-.115-.76,3.833,3.833,0,0,0-3.45.151c-1.518.894-2.254,2.6-3.766,3.494-.135.079-.153.427-.15.649A3.645,3.645,0,0,0,696.427-701.216Zm-2.852,14.89c.85.675,1.695,1.305,2.488,1.995.408.354.76.347,1.065-.023.69-.838,1.741-1.4,2.028-2.542a7.439,7.439,0,0,0,.1-1.271,5.387,5.387,0,0,0-1.136.094,18.356,18.356,0,0,1-2.753.885C694.6-687.092,693.943-687.042,693.575-686.327Z" transform="translate(-340.142 -30.523)" fill="#fff"/>
    <path id="路径_4" data-name="路径 4" d="M1147.845-700.919c.062.556.159,1.11.179,1.668.044,1.209-.334,1.625-1.529,1.843a8.626,8.626,0,0,0-1.1.35l-.014.281q.555.308,1.11.615c.511.281.94.6.882,1.288-.1,1.183.232,1.46,1.473,1.648a4.177,4.177,0,0,1,1.745.724.927.927,0,0,1-.172,1.655c-.729.42-1.448.893-2.16-.05-.076-.1-.327-.079-.5-.1-1.292-.124-2.585-.234-3.876-.367-.791-.082-.949-.013-1.355.8.372.047.7.1,1.033.13a4.98,4.98,0,0,1,2.932,1.351c1.156.994.9,2.192,1.134,3.305a9.373,9.373,0,0,1,.19,3.6,23.207,23.207,0,0,0,.046,3.525,19.423,19.423,0,0,1-.382,2.235,3.065,3.065,0,0,0-.122.867c.227,1.787-.45,3.441-.856,5.107a5.414,5.414,0,0,1-1.625,2.166c-.165.165-.886.008-1.172-.223-1.192-.964-2.315-2.013-3.465-3.029-.295-.26-.6-.512-.98-.842a12.169,12.169,0,0,1-1.486,2.1,2.666,2.666,0,0,1-2.663.534,2.091,2.091,0,0,1-1.378-1.9,7,7,0,0,1,.99-4.145c.063-.132.481-.123.736-.13.355-.009.71.029,1.065.047a3.578,3.578,0,0,1-.48-.734q-.5-1.428-.911-2.884a12.973,12.973,0,0,0-.239-1.3,1.825,1.825,0,0,1,.609-2.2c-.446-.269-.845-.7-1.142-.641a1.565,1.565,0,0,0-1.018.863c-.474,1.432-1.228,2.764-.962,4.432a6.359,6.359,0,0,1-1.669,5.239c-.832.965-1.794.99-2.483-.065a9.687,9.687,0,0,1-1.349-8.524c.3-.969.671-1.918,1.02-2.872a1.6,1.6,0,0,1,.3-.54q1.35-1.448,2.733-2.866c.106-.109.309-.123.572-.221.072.819.084,1.576.225,2.308a4.557,4.557,0,0,0,.567,1.131c.416-.37,1.106-.685,1.193-1.12a21.419,21.419,0,0,0,.227-3.421c.018-.515-.313-.682-.767-.559-.54.146-1.072.324-1.6.52-.967.361-1.924.75-2.888,1.119a5.448,5.448,0,0,0-3.056,2.518,1.791,1.791,0,0,1-1.387.613,1.513,1.513,0,0,1-1.484-1.391c-.428-2.285.8-3.684,3.136-3.561a9.3,9.3,0,0,0,1.142.118c.228-.017.44-.236.659-.365-.157-.206-.273-.528-.478-.6a2.36,2.36,0,0,1-1.941-2.577,18.26,18.26,0,0,1,.384-3.59c.211-1.064.674-2.075.937-3.132s.388-2.124.62-3.177a2.789,2.789,0,0,1,.446-.749c.252.19.609.327.735.58.353.71.56,1.492.929,2.192.138.262.561.374.854.555a9.98,9.98,0,0,0,.214-1.183c.01-.141-.25-.3-.252-.445,0-.426-.1-.985.126-1.256a4.981,4.981,0,0,0,1.361-3.8,2.733,2.733,0,0,0-.534-1.068,10.1,10.1,0,0,1-1.075-1.56c-.447-1.118.054-1.85,1.234-1.767a6.523,6.523,0,0,1,3.81,1.265,2.611,2.611,0,0,1,.936,2.693c-.251.631-.552,1.242-.839,1.858-.31.665-.646,1.318-.937,1.991a1.654,1.654,0,0,0-.128.765c.06.685.171,1.366.278,2.179.251-.314.479-.622.73-.909.816-.933,1.719-1.8,2.437-2.806a7.712,7.712,0,0,1,2-2.164c.156-.1.168-.416.257-.628.077-.182.163-.51.255-.514.818-.032.849-.786,1.229-1.226a6.387,6.387,0,0,1,1.716-1.619,21.514,21.514,0,0,1,4.01-1.578c1.126-.311,2.871,1.126,3.224,2.387.2.718.463,1.346-.118,2.087-.359.458-.278,1.233-.562,1.78-.545,1.048-1.246,2.013-1.805,3.055a4.631,4.631,0,0,0-.493,1.637,3.621,3.621,0,0,0,.272,1.174Zm-4.3,2.662c.33-.348.878-.658.955-1.058a29.361,29.361,0,0,0,.251-3.12,10.966,10.966,0,0,1,.225-1.742,9.75,9.75,0,0,1,1.726-4.121.635.635,0,0,0,.015-.55.462.462,0,0,0-.432-.15c-1.029.559-2.063,1.115-3.051,1.742-.793.5-1.039,1.681-2.174,1.8-.075.008-.125.189-.2.278a10.953,10.953,0,0,1-1.033,1.2c-1.182,1.052-1.534,2.747-2.882,3.665-.062.042-.065.164-.115.235-.466.673-.932,1.346-1.408,2.012-.152.213-.351.392-.5.605-.924,1.311-1.785,2.672-2.78,3.926a23.381,23.381,0,0,1-2,1.869c-.146.145-.127.456-.185.691a2.728,2.728,0,0,0,.619-.089,18.613,18.613,0,0,1,3.36-1.3c2.814-.485,5.664-.767,8.5-1.111.568-.069,1.1-.166,1.108-.859.006-.523-.922-1.148-1.466-1.021-.7.164-1.4.346-2.091.564a.873.873,0,0,1-1.223-.653.808.808,0,0,1,.614-1.153c1.251-.407,1.251-.406.379-1.464-.038-.046-.107-.09-.108-.137-.011-.464-.182-1.035.025-1.37.333-.537.732.008,1.112.179C1141.623-699.006,1142.49-698.682,1143.544-698.256Zm1.841,13.645a28.25,28.25,0,0,0-.525-3.213c-.371-1.339-1.312-1.629-2.447-.836a12.828,12.828,0,0,0-1.387,1.232c-1.024.963-2.046,1.928-3.05,2.911a4.6,4.6,0,0,0-.512.741,2.82,2.82,0,0,0,.784.408,1.507,1.507,0,0,1,1.208,1.261,1.14,1.14,0,0,1-.353,1.425,1.069,1.069,0,0,0-.219.913,4.026,4.026,0,0,0,.563,1.093c.619,1.04.56,1.305-.436,2.037-.372.273-.948.616-.467,1.085.231.225.925.1,1.351-.038.365-.121.612-.56.97-.744.718-.368,1.222-.051,1.105.726a5.33,5.33,0,0,1-.6,1.407c-.119.248-.279.476-.421.713.226.1.447.213.681.287a9.221,9.221,0,0,1,1.019.282.784.784,0,0,0,1.193-.5,4.45,4.45,0,0,0,.326-1.007C1144.656-677.8,1145.721-681.117,1145.385-684.612Zm-9.2-2.835.29.208c1.16-.866,2.337-1.711,3.464-2.618a.971.971,0,0,0,.294-.87,1.1,1.1,0,0,0-.874-.357,8.366,8.366,0,0,0-1.83.269,1.518,1.518,0,0,0-.852.538A3.994,3.994,0,0,0,1136.18-687.446Zm-4.718-11.538a7.382,7.382,0,0,0-1.032-.6c-.051-.02-.4.435-.356.493a2.6,2.6,0,0,0,.741.693C1130.867-698.369,1131.139-698.688,1131.462-698.985Z" transform="translate(-694.658 -35.174)" fill="#fff"/>
    <path id="路径_5" data-name="路径 5" d="M1769.32-681.169a5.862,5.862,0,0,1,.108-1.53,11.108,11.108,0,0,1,.919-1.734c.184-.327.623-.759.534-.94a2.673,2.673,0,0,0-1.014-.953c-.412-.254-.956-.306-1.341-.587a1.708,1.708,0,0,1-.579-2.2,1.817,1.817,0,0,1,2.061-1.011c.232.04.46.108.689.166a4.348,4.348,0,0,0,3.769-.764c.836-.6,1.781-1.049,2.6-1.666a2.791,2.791,0,0,0,.943-1.287c.212-.659-.053-1.17-.863-1.33a8.358,8.358,0,0,0-5.5.838,18.594,18.594,0,0,0-3.156,1.745,25.886,25.886,0,0,0-3.74,3.477,36.437,36.437,0,0,0-2.667,3.959c-.319.489-.6.932-1.207.282-.14-.149-.479-.139-.729-.151a2.01,2.01,0,0,1-1.953-2.61,5.505,5.505,0,0,0,.153-1.3,3.183,3.183,0,0,1,2.247-3.051,1.342,1.342,0,0,0,.736-.9,1.171,1.171,0,0,0-.478-1c-.772-.364-.735-.862-.4-1.437.413-.714.9-1.387,1.335-2.086a2.036,2.036,0,0,0,.416-.85,1.328,1.328,0,0,0-.386-.806c-.047-.055-.485.116-.634.281-.659.735-1.267,1.517-1.917,2.26a16.876,16.876,0,0,1-1.455,1.523c-.47.418-.845.088-1.071-.332a7.743,7.743,0,0,1,.1-8.054,18.653,18.653,0,0,1,2.7-3.142.791.791,0,0,1,1.41.446,19.594,19.594,0,0,1,.081,2.8c.009.428-.338,1.066.4,1.131.634.056.986-.361,1.053-1.048.118-1.231.32-2.453.456-3.682a1.265,1.265,0,0,0-.148-.752c-1-1.624-.4-3.189.19-4.728.2-.53.724-.634,1.277-.37a2.8,2.8,0,0,1,1.787,3.215c-.167,1.032-.536,2.03-.787,3.049a5.2,5.2,0,0,0-.066.912,5.564,5.564,0,0,0,.739-.066c.791-.174,1.243.245,1.011,1.012a7.8,7.8,0,0,1-.6,1.276c-.407.786-.864,1.548-1.23,2.352-.246.541-.632,1.207.517,1.281.4.026.589,1.006.207,1.26a2.494,2.494,0,0,0-.982,2.241,4.882,4.882,0,0,1-.213.945c-.242.93.17,1.365,1.117,1.151a4.271,4.271,0,0,0,.833-.294.871.871,0,0,0,.529-1.194,5.169,5.169,0,0,1,.734-4.527,1.163,1.163,0,0,0,.052-.807,7.375,7.375,0,0,1-.384-1.41,24.321,24.321,0,0,1,.259-3.963,7.928,7.928,0,0,1,2.929-4.917,2.18,2.18,0,0,1,2.81.039c1.254,1.006,2.482.589,3.761.29.171-.04.329-.137.5-.177.732-.171,1.049.144.777.839s-.289,1.033.652.974a1.815,1.815,0,0,1,1.14.677,8.924,8.924,0,0,1,1.768,2.275,4.254,4.254,0,0,1,.026,2.306,17.922,17.922,0,0,1-.831,2.637,5.261,5.261,0,0,1-3.64,3.335,4.271,4.271,0,0,0-.516.123,6.8,6.8,0,0,0-.651.393,2.348,2.348,0,0,0,.767.272c1.033-.023,2.066-.086,3.1-.169,1.135-.09,1.542.15,1.961,1.2.47,1.182.823,2.356-.064,3.51-.108.14-.236.4-.337.388-1.116-.092-1.312,1.054-2.024,1.458-1.5.856-3.045,1.664-4.626,2.367-.675.3-.841.388-.468,1.152a2.29,2.29,0,0,1-.158,1.966c-.578.823-.911,1.826-1.879,2.434-.728.457-.443,1.272.463,1.422s1.829.078,2.73.206a20.4,20.4,0,0,1,2.167.544c.135.034.3.116.4.07.968-.421,1.291.257,1.559.935a9.226,9.226,0,0,1,.542,1.864c.044.264-.18.587-.326.86-.094.175-.353.29-.39.464-.168.782-.64.9-1.367.849-1.185-.087-1.162-.037-1.245-1.315a.819.819,0,0,0-.6-.541c-.186-.008-.58.391-.551.547.129.677-.342,1.039-.567,1.552-.48,1.1-1.733,1.835-1.541,3.261a.968.968,0,0,1-.463.761,4.848,4.848,0,0,1-1.658.523,1.565,1.565,0,0,0-1.49.9c-.512,1.164-1.8,1.066-2.695,1.611-.127.077-.7-.509-1.019-.829a2.731,2.731,0,0,1-.543-.767,4.725,4.725,0,0,1-.493-1.345c-.122-.963-.095-1.945-.21-2.909a3.24,3.24,0,0,0-1.867-2.629c-.743-.37-1.443-.747-1.324-1.752a2.362,2.362,0,0,1,1.879-1.777c.862-.2,1.715-.446,2.585-.605C1767.6-680.995,1768.449-681.061,1769.32-681.169Zm8.077-20.4c.331-1.394.662-2.621.89-3.867a1.092,1.092,0,0,0-.4-.934,1.319,1.319,0,0,0-1.044.124,13.976,13.976,0,0,0-1.928,1.237,4.315,4.315,0,0,0-1.14,1.169,1.815,1.815,0,0,1-1.391.926,1.534,1.534,0,0,0-1.053.693,1.533,1.533,0,0,0,.182,1.354,1.957,1.957,0,0,1,.356,2.344,9.29,9.29,0,0,0-.243,1.108l.272.112c.954-.915,2.237-1.567,2.313-3.177a2.789,2.789,0,0,1,.236-1.021c.382-.822.948-.968,1.763-.54C1776.485-701.893,1776.8-701.8,1777.4-701.567Zm-3.4-5.451a8.706,8.706,0,0,0-1.331-.513,1.727,1.727,0,0,0-1.945.732,3.764,3.764,0,0,0-.087,1.837c.008.113.541.346.632.273C1772.135-705.376,1772.961-706.118,1774-707.018Zm-1.845,30.4a5.61,5.61,0,0,0-3.39-.059c-.12.02-.3.5-.23.682a1.428,1.428,0,0,0,2.55.6A15.584,15.584,0,0,0,1772.153-676.613Z" transform="translate(-1195.946 -35.08)" fill="#fff"/>
    <path id="路径_6" data-name="路径 6" d="M1573.963-673.588a10.9,10.9,0,0,0-1.468-.116q-2.611.146-5.217.365a2.055,2.055,0,0,1-1.854-.748,16.15,16.15,0,0,0-2.417-2.028,1.964,1.964,0,0,1-.783-2.152.8.8,0,0,1,.749-.237,9.942,9.942,0,0,0,6.7.646,35.733,35.733,0,0,0,4.433-1.2,1.788,1.788,0,0,0,1.042-1.15,33.287,33.287,0,0,0,.022-10.579,2.32,2.32,0,0,0-1.334-2.016c-.976-.431-.813-2.528.188-2.936,2.022-.824,4.131-.353,4.912,2.142a21.958,21.958,0,0,1,.356,12.122c-.189.76-.021.961.733.732,1.776-.541,3.551-1.1,5.287-1.749,1.014-.381,1.089-.895.434-1.778-.477-.643-.981-1.268-1.581-2.039a3.639,3.639,0,0,1,3.128.813,2.709,2.709,0,0,0,1.8.5c.972-.059,1.951,0,2.925-.033a3.066,3.066,0,0,1,2.286.988,1.814,1.814,0,0,1-.609,3.048c-4.323,1.609-8.586,3.414-12.992,4.752-2.206.67-2.864,1.878-3.2,3.9-.839,4.993-3.755,8.709-7.754,11.625a2.594,2.594,0,0,1-1.934.255,23.12,23.12,0,0,1-3.814-1.381c-.915-.417-.984-1-.329-1.776a3.6,3.6,0,0,1,2.688-1.451,6.9,6.9,0,0,0,5-3.036,18.267,18.267,0,0,0,1.785-3.14A20.787,20.787,0,0,0,1573.963-673.588Z" transform="translate(-1042.726 -48.204)" fill="#fff"/>
    <path id="路径_7" data-name="路径 7" d="M946.168-677.817c-.5,0-1.08-.042-1.651.011a1.4,1.4,0,0,1-1.544-.743,3.2,3.2,0,0,1-.315-3.154c.585-1.321.67-2.862,1.248-4.187.617-1.414.5-3.11,1.681-4.3.115-.116.077-.437.032-.645a1.083,1.083,0,0,1,.964-1.453c.836-.139.882.473.981,1.034.2,1.14.408,2.28.6,3.422a1.429,1.429,0,0,1-.014.677,14.182,14.182,0,0,1-1.9,3.967,2.052,2.052,0,0,0-.1,1.453c.026.13.7.2,1.063.178a3.354,3.354,0,0,0,2.974-1.859,4.279,4.279,0,0,1,1.274-1.209.793.793,0,0,1,.711.042,1.731,1.731,0,0,1,.651,2.439c-.628,1.294-1.245,2.594-1.875,3.887-.275.563-.531,1.128-1.378.953-.125-.026-.531.531-.53.818a1.5,1.5,0,0,1-1.066,1.659c0,.511-.011.966.006,1.421.006.16.031.4.136.466,1.285.863.416,1.941.3,2.934-.026.22-.308.446-.272.631a8.387,8.387,0,0,0,.446,1.27,3.554,3.554,0,0,0,.876-.708c1.027-1.616,1.844-3.369,3.393-4.617.365-.294.479-.879.8-1.253a3.141,3.141,0,0,1,1.174-.776,3.041,3.041,0,0,1-.479,2.486,1.972,1.972,0,0,0-.405.839,2.13,2.13,0,0,1-.834,1.454,14.46,14.46,0,0,0-2.19,3.052c-.324.5-.509,1.095-.8,1.62a2,2,0,0,0,.341,2.288,4.067,4.067,0,0,1,.461,1.165c.095.334,0,.776.181,1.021.531.7.269,1.178-.2,1.784a8.042,8.042,0,0,1-3.118,2.768,3,3,0,0,1-2.254.045,21.058,21.058,0,0,1-3.824-2.674c-1.225-1.058-.915-2.495.546-3.271.178-.095.427-.213.474-.371a1.842,1.842,0,0,1,1.943-1.337,1.1,1.1,0,0,0,.716-.779c.107-1.3.1-2.609.126-3.915a4.506,4.506,0,0,0-.055-.508,2.231,2.231,0,0,1-2.428-.03,3.232,3.232,0,0,1-.363-4.335c.658-.667,1.437-1.214,2.155-1.822a3,3,0,0,0,.551-.543C945.651-676.913,945.878-677.334,946.168-677.817Zm.745,17.124a3.756,3.756,0,0,0-.526-.444,7.128,7.128,0,0,0-.9.842,2.014,2.014,0,0,0,.363.418C946.184-660.1,946.494-660.359,946.913-660.693Z" transform="translate(-550.967 -51.212)" fill="#fff"/>
    <path id="路径_8" data-name="路径 8" d="M1001.8-630.544c-.5.1-1.067.23-1.645.308a.945.945,0,0,1-.629-.141,8.765,8.765,0,0,1-1.951-1.595,10.367,10.367,0,0,1-1.071-2.437,8.656,8.656,0,0,0-.47-1.445c-.56-.9-.533-1.542.359-2.108a5.974,5.974,0,0,1,4.347-.649,9.877,9.877,0,0,0,1.3.212c1.134.033,1.3-.175,1.363-1.3a1.976,1.976,0,0,1,.375-1.021,1.076,1.076,0,0,0-.159-1.572c-.486-.508-.941-.322-1.386.087-.3.273-.615.522-.941.8a15.858,15.858,0,0,1-1.5-1.864,5.149,5.149,0,0,1-.353-3.448,22.769,22.769,0,0,1,.373-2.888,24.188,24.188,0,0,1,1.221-2.891c.5-1.18,1.027-2.355,1.479-3.555.1-.259-.076-.619-.159-1.155l-1.258,1.481c-.154-.138-.235-.18-.231-.212.234-2.258,3.2-3.78,5.052-2.541a2.129,2.129,0,0,1,.713,1.276,3.331,3.331,0,0,1-.181,1.387c-.264,1.046-.565,2.082-.862,3.119a1.057,1.057,0,0,1-.257.547c-1.232.909-1.554,2.371-2.24,3.609-.071.127-.086.287-.165.406-.664,1-.647,1.107.5,1.415a3.278,3.278,0,0,1,2.247,1.57.934.934,0,0,0,.287.335c1.827,1.2,1.741,2.854,1.129,4.647-.05.146.051.336.043.5a3.15,3.15,0,0,1-.118,1.188c-.328.665-.159.877.53,1a2.648,2.648,0,0,1,.982.577c.435.321.842.682,1.265,1.02.112.09.281.133.354.243q1.339,2,2.655,4.024a2.364,2.364,0,0,1-.051,2.884c-.615.88-1.481,1.142-2.248.391-.935-.916-1.677-2.027-2.529-3.03a3.173,3.173,0,0,0-.823-.64,8.264,8.264,0,0,1-1.373-.725c-1.02-.909-1.452-.926-2.295.1C1002.925-631.95,1002.374-631.256,1001.8-630.544Zm-3.381-6.149c.111.358.114.852.335.985a5.26,5.26,0,0,0,1.726.614c.137.026.569-.527.513-.7a1.2,1.2,0,0,0-.741-.644A12.384,12.384,0,0,0,998.419-636.693Z" transform="translate(-594.275 -77.645)" fill="#fff"/>
    <path id="路径_9" data-name="路径 9" d="M897.681-697.118a2.73,2.73,0,0,1,2.564,2.516c.029.161.181.3.26.453a24.724,24.724,0,0,1,1.248,2.554,1.489,1.489,0,0,1-.322,1.119c-.514.718-1.127,1.365-1.688,2.051a14.989,14.989,0,0,1-1.407,1.731,29.034,29.034,0,0,1-2.361,1.757c-.262.191-.63.326-.763.582a2.314,2.314,0,0,0-.3,1.3c.028.19.639.448.962.418,1.695-.156,2.194,1.429,3.265,2.167.12.082.142.39.118.582a8.14,8.14,0,0,1-.4,2.4,18.737,18.737,0,0,1-2.156,3.556,11.919,11.919,0,0,1-2.056,1.562.93.93,0,0,0-.339.718,11.359,11.359,0,0,0,.646,2.186,1.006,1.006,0,0,0,.817.478c.395-.045.945.051,1.091-.64a3.961,3.961,0,0,1,.72-1.3c.11-.161.442-.363.524-.311a1.213,1.213,0,0,1,.425.6.9.9,0,0,1-.08.512c-.735,2.245-.437,4.547-.3,6.821a5.3,5.3,0,0,1-1.272,3.833,1.049,1.049,0,0,1-1.623.133,3.675,3.675,0,0,1-1.557-3.949,7.7,7.7,0,0,0-2-6.684,2.9,2.9,0,0,1-.041-3.85,6.063,6.063,0,0,0,.491-1.2c.386-.859.767-1.721,1.2-2.554.129-.245.506-.6.655-.555.814.261.973-.49,1.369-.827.136-.116.123-.512.043-.732-.043-.118-.371-.185-.57-.186-1.878-.01-3.84-2.2-3.505-4.049a5.493,5.493,0,0,1,.848-1.922c.428-.661,1.046-1.2,1.5-1.844.258-.367.275-.907.541-1.264a20.829,20.829,0,0,0,3.322-7.824A2.256,2.256,0,0,1,897.681-697.118Z" transform="translate(-511.366 -47.407)" fill="#fff"/>
    <path id="路径_10" data-name="路径 10" d="M1648.514-563.607c.49-.348,1.276-.971,2.124-1.492a2.255,2.255,0,0,1,2.78.093c1.278.94,2.752,1.616,4.021,2.567a20.723,20.723,0,0,1,3.145,2.939,4.215,4.215,0,0,1,.84,2.087c.287,1.956-1.134,2.967-2.478,3.918-1.324.936-2.663.5-3.872-.3a2.109,2.109,0,0,1-.718-1.139,12.9,12.9,0,0,0-5.037-7.348C1648.949-562.547,1648.8-563.12,1648.514-563.607Z" transform="translate(-1111.121 -151.579)" fill="#fff"/>
    <path id="路径_11" data-name="路径 11" d="M990.809-453.3c.3-.2.474-.419.656-.424,1.093-.033,2.19-.054,3.28.012a1.053,1.053,0,0,1,.688.609c.621,1.589,1.187,3.2,1.824,4.948a5.35,5.35,0,0,0,.318-.6c.509-1.445,1.03-2.886,1.5-4.344a.772.772,0,0,1,.875-.654c.945.033,1.892-.008,2.838.022a2.087,2.087,0,0,1,.659.268c-.192.114-.373.3-.576.327a.773.773,0,0,0-.751.9q.011,3.277,0,6.555c0,.54.2.821.787.818.18,0,.361.191.542.295-.166.113-.33.322-.5.325-1.3.026-2.6.023-3.9,0-.151,0-.3-.184-.448-.282.135-.116.276-.337.406-.331.773.037.849-.419.844-1.025-.017-2.091-.006-4.182-.194-6.323-.25.7-.509,1.392-.748,2.093-.6,1.757-1.175,3.522-1.792,5.272-.081.232-.342.4-.519.6-.183-.193-.449-.355-.535-.584-.8-2.153-1.576-4.318-2.36-6.479a1.444,1.444,0,0,0-.519-.745c0,.806,0,1.612,0,2.418,0,1.151,0,2.3.015,3.454a1.163,1.163,0,0,0,.97,1.286c.2.044.365.27.547.412l-.113.2h-3.586l-.121-.189a4.6,4.6,0,0,0,.513-.464c.3-.356.791-.725.805-1.1.083-2.123.046-4.25.054-6.376C992.27-453.309,991.492-453.009,990.809-453.3Z" transform="translate(-590.435 -240.072)" fill="#fff"/>
    <path id="路径_12" data-name="路径 12" d="M804.769-453.47c.166-.122.33-.345.5-.349,1.359-.029,2.719-.026,4.078-.006.162,0,.322.173.483.265-.161.113-.317.315-.484.324-.645.033-.879.358-.864.971.02.847.005,1.7.005,2.585h3.591a16.984,16.984,0,0,0-.052-2.851c-.064-.367-.707-.633-1.165-1.008.079-.316.079-.324,3.951-.286.342,0,.955-.291.925.495-1.337.275-1.338.275-1.339,1.652,0,1.889.008,3.778,0,5.667,0,.638.1,1.112.913,1.06.164-.01.345.244.518.377l-.122.25c-1.5,0-3,.008-4.506-.014-.148,0-.295-.191-.442-.294.141-.113.289-.331.421-.322.8.058.936-.39.915-1.049-.028-.882-.007-1.765-.007-2.725H808.5c0,1.046-.038,2.127.034,3.2.013.2.463.375.717.552.187.13.384.245.577.366-.184.1-.367.272-.553.275a33.259,33.259,0,0,1-4.5-.174c.145-.153.3-.448.434-.437.923.074.988-.483.982-1.176-.016-1.889,0-3.778-.006-5.667C806.189-453.115,806.185-453.117,804.769-453.47Z" transform="translate(-443.153 -239.974)" fill="#fff"/>
    <path id="路径_13" data-name="路径 13" d="M1647.356-453.185c.281-.2.452-.418.62-.417,2.273.018,4.552-.028,6.814.142a2.161,2.161,0,0,1,2.073,2.783c-.31,1.291-1.364,1.584-2.726,1.852,1.662.485,1.935,1.7,2.189,2.97.065.322.388.592.592.885.17-.276.332-.557.513-.825.116-.171.261-.322.472-.577a1.877,1.877,0,0,1-1.56,2.525,1.937,1.937,0,0,1-2.528-1.535c-.085-.581-.089-1.174-.149-1.76-.117-1.137-.585-1.54-1.73-1.571-.476-.013-.71.125-.693.645.027.855.017,1.711,0,2.567-.007.514.205.744.736.763.193.007.38.227.569.35-.184.094-.366.267-.552.271q-1.994.035-3.989,0c-.163,0-.324-.165-.486-.253.156-.128.322-.376.467-.365.885.068.933-.471.927-1.127-.016-1.8-.005-3.6-.005-5.4C1648.916-452.785,1648.916-452.785,1647.356-453.185Zm3.894,2.1c0,1.992,0,1.992,1.809,1.672a1.679,1.679,0,0,0,1.468-2.108c-.126-1.035-.924-1.543-2.322-1.477-.881.042-.954.168-.954,1.648Z" transform="translate(-1110.204 -240.191)" fill="#fff"/>
    <path id="路径_14" data-name="路径 14" d="M1110.606-453.208c.367-.2.563-.408.757-.406,1.919.018,3.849-.041,5.755.139,2.638.249,4.02,2.057,3.926,4.855a4.254,4.254,0,0,1-4.281,4.478c-1.771.075-3.548.033-5.322.014-.2,0-.4-.2-.6-.307.2-.111.4-.311.606-.315.559-.011.7-.293.7-.787-.01-2.215-.034-4.43.008-6.644C1112.173-453.188,1111.361-452.906,1110.606-453.208Zm3.913,4.288c0,1.12-.027,2.242.02,3.361.011.254.252.692.43.715,1.533.2,3.018.113,3.319-1.826a15.488,15.488,0,0,0,.108-3.947c-.184-1.758-1.314-2.523-3.095-2.4-.544.038-.8.257-.789.822C1114.534-451.1,1114.519-450.011,1114.519-448.92Z" transform="translate(-685.275 -240.182)" fill="#fff"/>
    <path id="路径_15" data-name="路径 15" d="M1598.665-449.48a1.6,1.6,0,0,0,1.957-1.176,2.846,2.846,0,0,1,.475-.649l.213.145v4.235l-.236.133a3.7,3.7,0,0,1-.452-.683,1.578,1.578,0,0,0-1.949-1.142c0,1.095-.033,2.205.031,3.31.011.2.415.524.651.537,1.933.108,3.244-.4,3.881-2.2a4.652,4.652,0,0,1,.478-.8l.216.129v3.488h-3.106c-1.745,0-3.491.009-5.235-.017-.2,0-.388-.21-.582-.322.175-.1.351-.3.524-.3.586.006.768-.261.763-.814-.017-2.186-.04-4.372.009-6.557.022-.975-.653-.877-1.52-.939.316-.294.461-.546.608-.548,2.714-.023,5.429-.017,8.219-.017v3.33l-.175.15a2.985,2.985,0,0,1-.47-.639,3.1,3.1,0,0,0-3.411-2.233c-.609.026-.929.229-.9.9C1598.694-451.282,1598.665-450.4,1598.665-449.48Z" transform="translate(-1068.584 -240.137)" fill="#fff"/>
    <path id="路径_16" data-name="路径 16" d="M1461.017-443.99a4.924,4.924,0,0,1-1.038-.713c-1.681-1.943-3.326-3.915-4.984-5.877a2.3,2.3,0,0,0-.855-.687q0,.537,0,1.073c0,1.181-.012,2.362.013,3.542.017.834.145,1.613,1.216,1.755.151.02.272.263.562.563h-3.915l-.121-.178c.173-.153.322-.379.523-.443a1.154,1.154,0,0,0,.893-1.173c.02-1.977.067-3.957-.015-5.93-.015-.362-.579-.705-.9-1.05-.138-.149-.294-.281-.442-.42a1.882,1.882,0,0,1,.588-.248,12.135,12.135,0,0,1,2.036.01,1.9,1.9,0,0,1,1.115.515c1.3,1.453,2.535,2.96,3.8,4.445.221.26.459.506.821.9,0-1.541.028-2.878-.012-4.214-.019-.62-.478-.888-1.057-1.015-.167-.037-.292-.263-.436-.4.164-.084.327-.237.493-.241q1.418-.035,2.837,0c.168,0,.332.154.5.236-.107.144-.193.388-.325.417-.969.21-1.028.95-1.032,1.71-.011,2.066,0,4.133,0,6.2v.961Z" transform="translate(-955.465 -240.022)" fill="#fff"/>
    <path id="路径_17" data-name="路径 17" d="M1065.084-451.182v4.225l-.223.143a3.383,3.383,0,0,1-.469-.654c-.4-1-.822-1.263-1.977-1.125,0,1.044-.047,2.1.034,3.155a1.049,1.049,0,0,0,.722.666,3.333,3.333,0,0,0,3.853-2.249,1.084,1.084,0,0,1,.659-.625v3.432h-8.873l-.119-.259c.2-.115.408-.33.609-.326.649.013.817-.335.816-.887,0-2.126-.023-4.252.01-6.378.015-.938-.554-1.051-1.409-1.21.156-.135.311-.385.468-.387,2.687-.024,5.373-.017,8.166-.017v3.365l-.145.143a3.347,3.347,0,0,1-.479-.674,3.077,3.077,0,0,0-3.413-2.225c-.6.026-.936.227-.91.9.034.879.008,1.761.008,2.627,1.126.166,1.58-.114,1.973-1.093a3.861,3.861,0,0,1,.455-.681Z" transform="translate(-644.176 -240.132)" fill="#fff"/>
    <path id="路径_18" data-name="路径 18" d="M754.721-447.856c0-1.484.008-2.692,0-3.9a1.242,1.242,0,0,0-1.093-1.382c-.176-.033-.319-.242-.477-.37.182-.1.36-.272.545-.278q1.373-.043,2.748,0c.181.006.355.191.532.294-.127.131-.235.343-.385.38a1.133,1.133,0,0,0-.907,1.24q-.043,2.388-.073,4.776c-.01.941,0,1.882,0,3.166a5.284,5.284,0,0,1-1.224-.731c-1.7-1.963-3.365-3.96-5.043-5.944-.2-.237-.412-.463-.711-.8,0,1.981-.041,3.79.041,5.594.013.295.559.572.871.843.177.154.379.279.571.417l-.1.2H746.2c.243-.292.353-.557.522-.6a1.2,1.2,0,0,0,.949-1.313c.027-1.917.1-3.836.031-5.749-.013-.372-.562-.732-.877-1.086a5.428,5.428,0,0,0-.463-.417,2.082,2.082,0,0,1,.643-.276,10.3,10.3,0,0,1,1.947.01,1.917,1.917,0,0,1,1.107.526c1.318,1.475,2.578,3,3.861,4.507C754.126-448.505,754.341-448.278,754.721-447.856Z" transform="translate(-396.789 -240.013)" fill="#fff"/>
    <path id="路径_19" data-name="路径 19" d="M978.507-691.609a14.044,14.044,0,0,1,1.919,1.226c.492.433.9.662,1.461.233,1.605-1.222,3.306-.572,4.915-.119a3.531,3.531,0,0,1,1.648,1.5,1.759,1.759,0,0,1,0,1.475,4.5,4.5,0,0,1-3.264,2.345,1.977,1.977,0,0,1-1.121-.149.854.854,0,0,1-.214-1.5c.146-.144.355-.235.472-.4a4.606,4.606,0,0,0,.356-.7c-.314-.064-.677-.261-.935-.168-.9.326-1.751.8-2.653,1.128a1.909,1.909,0,0,1-2.687-1.126,22.4,22.4,0,0,1-.791-2.7c-.2-.685.058-.955.769-.82Z" transform="translate(-579.94 -51.768)" fill="#fff"/>
    <path id="路径_20" data-name="路径 20" d="M1708.942-446.042l-1.142.755-.259-.148c0-.607.013-1.215,0-1.822-.016-.586-.063-1.172-.1-1.757l.232-.183c.236.231.554.421.694.7a3.956,3.956,0,0,0,2.8,2.482,3.421,3.421,0,0,0,1.389-.064,1.359,1.359,0,0,0,1.083-1.431,1.26,1.26,0,0,0-1.032-1.267c-1.183-.36-2.391-.655-3.547-1.089a2.417,2.417,0,0,1-1.642-2.482,2.556,2.556,0,0,1,1.694-2.562,6.6,6.6,0,0,1,2.586-.282c.887.061,1.749.918,2.642-.231l.168.218q.094,1.643.188,3.287l-.224.179a4.4,4.4,0,0,1-.62-.545c-.418-.529-.75-1.134-1.211-1.62a2.324,2.324,0,0,0-2.525-.633,1.809,1.809,0,0,0-1.047,1.128,1.486,1.486,0,0,0,.771,1.178,21.437,21.437,0,0,0,2.867.866,2.878,2.878,0,0,1,2.319,2.168,2.953,2.953,0,0,1-2.576,3.855A5.119,5.119,0,0,1,1708.942-446.042Z" transform="translate(-1157.749 -238.75)" fill="#fff"/>
    <path id="路径_21" data-name="路径 21" d="M864.779-453.278c.181-.62.181-.625,4.134-.531a1.4,1.4,0,0,1,.855.451c-1.327-.069-1.391.67-1.361,1.584.047,1.445,0,2.893.015,4.339.014,1.62.764,2.4,2.283,2.418a2.16,2.16,0,0,0,2.43-2.392c.032-1.446,0-2.893.012-4.339.007-.734-.216-1.259-1.018-1.423-.164-.034-.287-.265-.429-.405.167-.081.331-.227.5-.232q1.329-.035,2.66,0c.159,0,.313.172.469.264-.114.142-.205.378-.346.411-.907.22-.991.924-1,1.653-.019,1.387.013,2.775-.013,4.162a2.854,2.854,0,0,1-2.767,3.164,9.876,9.876,0,0,1-2.807-.065,2.527,2.527,0,0,1-2.248-2.477c-.1-1.735-.083-3.478-.1-5.218C866.032-453.1,866.042-453.1,864.779-453.278Z" transform="translate(-490.661 -239.993)" fill="#fff"/>
    <path id="路径_22" data-name="路径 22" d="M1399.855-453.377c-1.387.418-1.388.418-1.389,1.717,0,1.416-.023,2.833.006,4.248.041,2.024,1.437,2.981,3.359,2.336a1.667,1.667,0,0,0,1.3-1.509c.078-1.764.1-3.532.1-5.3a1.146,1.146,0,0,0-1-1.178c-.169-.038-.3-.255-.446-.39.168-.085.334-.238.5-.242.886-.024,1.773-.02,2.659,0,.14,0,.277.148.416.227-.1.153-.172.412-.3.442-.867.2-.968.856-.972,1.568-.009,1.357,0,2.715-.009,4.072-.021,2.033-.866,3.087-2.878,3.357a8.858,8.858,0,0,1-2.8-.1,2.63,2.63,0,0,1-2.21-2.794c-.015-1.682-.019-3.364,0-5.045.009-.7-.173-1.15-.979-1.143-.138,0-.278-.191-.416-.294.147-.1.293-.288.442-.291,1.359-.023,2.718-.026,4.077,0C1399.5-453.685,1399.677-453.486,1399.855-453.377Z" transform="translate(-910.265 -240.107)" fill="#fff"/>
    <path id="路径_23" data-name="路径 23" d="M1841.139-444.2c-1.59,0-3.18.008-4.769-.014-.143,0-.283-.195-.424-.3.138-.11.29-.328.414-.314,1.022.119,1.009-.5,1.068-1.256a5.266,5.266,0,0,0-1.115-3.865c-.562-.715-.979-1.543-1.488-2.3a5.822,5.822,0,0,0-.653-.7l-.527-.555a2.966,2.966,0,0,1,.714-.194c1.152-.02,2.3-.022,3.456.005.179,0,.354.189.532.291-.138.108-.261.273-.417.312-.537.134-.585.436-.334.85.547.9,1.107,1.8,1.762,2.864.54-.982,1.042-1.8,1.442-2.657.281-.606.029-.836-1.285-1.234.255-.192.415-.414.582-.42.974-.034,1.949-.03,2.924-.006.16,0,.316.168.473.259a3.618,3.618,0,0,1-.34.417,15.937,15.937,0,0,0-1.39,1.266c-.359.42-.533,1-.889,1.42a6.248,6.248,0,0,0-1.145,4.664c.031.593.236.852.85.843.223,0,.449.207.673.319Q1841.2-444.357,1841.139-444.2Z" transform="translate(-1257.684 -240.098)" fill="#fff"/>
    <path id="路径_24" data-name="路径 24" d="M1262.226-444.692h-4.357l-.13-.253.934-.558c.079-1.4-.48-2.018-1.884-2.019a7.749,7.749,0,0,1-1.239-.011c-.937-.154-1.185.448-1.323,1.152-.143.73.285,1,.939,1.1.181.028.331.259.4.574h-3.74a4.491,4.491,0,0,1,.328-.627,11.008,11.008,0,0,0,1.419-1.828c1-2.131,1.874-4.322,2.837-6.471.129-.289.49-.652.748-.656s.632.352.761.638c1.038,2.31,2,4.653,3.055,6.957a9.787,9.787,0,0,0,1.107,1.5A1.95,1.95,0,0,1,1262.226-444.692Zm-5.8-6.906-1.371,3.2h2.668Z" transform="translate(-797.074 -239.645)" fill="#fff"/>
    <path id="路径_25" data-name="路径 25" d="M691.237-444.715a4.5,4.5,0,0,1,.327-.618,12.114,12.114,0,0,0,1.514-1.969c.982-2.075,1.823-4.216,2.758-6.313.131-.293.511-.7.728-.674a1.28,1.28,0,0,1,.816.689c1.042,2.308,2.009,4.649,3.056,6.954a9.532,9.532,0,0,0,1.047,1.434,1.866,1.866,0,0,1,.145.484H697c.32-.28.474-.532.651-.549.645-.063.6-.38.437-.851-.491-1.389-.481-1.393-1.973-1.393-.384,0-.768,0-1.152,0a1.192,1.192,0,0,0-1.289,1.431c.053.285.445.524.714.744a4.387,4.387,0,0,0,.672.382l-.1.247Zm3.261-3.66h2.676l-1.322-3.195Z" transform="translate(-353.273 -239.646)" fill="#fff"/>
    <path id="路径_26" data-name="路径 26" d="M1548.161-447.031c.627-1.635,1.281-3.259,1.864-4.909.176-.5-.065-.9-.653-1.054-.208-.053-.373-.277-.558-.422a2.247,2.247,0,0,1,.706-.3c.855-.036,1.713-.027,2.569,0,.166.005.328.167.491.256-.115.143-.225.29-.345.429a7.542,7.542,0,0,0-1.38,1.622c-1,2.26-1.866,4.58-2.827,6.859a1.074,1.074,0,0,1-.761.592,1.082,1.082,0,0,1-.761-.6c-1.041-2.468-2.015-4.964-3.062-7.43a4.98,4.98,0,0,0-.921-1.086c-.1-.118-.27-.266-.251-.374a.462.462,0,0,1,.355-.269q1.9-.029,3.809,0c.121,0,.238.186.357.285-.109.1-.21.287-.328.3-.75.074-.759.446-.517,1.035.687,1.674,1.338,3.361,2,5.044Z" transform="translate(-1027.011 -240.084)" fill="#fff"/>
    <path id="路径_27" data-name="路径 27" d="M1794.312-449.916c-.118-.235-.224-.477-.357-.7a8.357,8.357,0,0,0-1.271-2.041c-.73-.665-1.408-.264-1.413.718-.011,2.094,0,4.189-.008,6.283,0,.6.085,1.057.856,1.022.154-.007.319.23.478.354-.158.092-.314.262-.474.264q-2.038.031-4.076,0c-.15,0-.3-.179-.445-.275.158-.12.323-.351.472-.341.752.051.891-.359.886-.985-.015-2.124,0-4.248-.01-6.372-.006-.949-.57-1.322-1.289-.714a8.351,8.351,0,0,0-1.368,2.06c-.143.23-.251.482-.376.724l-.344-.09c.053-1.142.105-2.284.16-3.462h8.725c.073,1.166.144,2.293.216,3.421Z" transform="translate(-1219.627 -240.29)" fill="#fff"/>
    <path id="路径_28" data-name="路径 28" d="M1211.343-454.985c.081,1.391.151,2.615.223,3.839l-.263.163a4.131,4.131,0,0,1-.561-.614,16.409,16.409,0,0,0-1.042-1.826,2.366,2.366,0,0,0-2.477-.808,1.964,1.964,0,0,0-1.645,1.764,31.285,31.285,0,0,0-.053,4.645,2.113,2.113,0,0,0,1.819,2.016,2.663,2.663,0,0,0,2.778-.949,13.606,13.606,0,0,0,1.038-1.772c.487.009.582.209.435.721-1.031,3.616-5.461,3.461-7.321,1.736a5.429,5.429,0,0,1-.8-6.737,4.864,4.864,0,0,1,6.191-1.659,1.41,1.41,0,0,0,.825-.108A6.385,6.385,0,0,0,1211.343-454.985Z" transform="translate(-758.148 -239.097)" fill="#fff"/>
    <path id="路径_29" data-name="路径 29" d="M1316.041-447.57v3.3a6.589,6.589,0,0,1-.761.1c-2.452.007-4.9.014-7.354-.01a2.315,2.315,0,0,1-.771-.321,3.664,3.664,0,0,0,.7-.331c.241-.18.607-.427.611-.651.046-2.27.023-4.542.032-6.813,0-.528-.258-.743-.752-.769a5.6,5.6,0,0,1-.579-.088l-.06-.305a5.279,5.279,0,0,1,1.039-.215c3.969-.026,3.969-.021,4.165.452-.039.039-.075.108-.118.113-1.32.16-1.321.16-1.321,1.482,0,1.917.036,3.835-.016,5.751-.023.845.331,1.074,1.1,1.063a3.17,3.17,0,0,0,3.436-2.345,2.857,2.857,0,0,1,.5-.635Z" transform="translate(-840.843 -240.124)" fill="#fff"/>
    <path id="路径_30" data-name="路径 30" d="M1752.371-453.187c.342-.26.5-.49.67-.493q2.128-.044,4.258,0c.167,0,.329.226.494.346-.163.085-.327.244-.487.241-.7-.013-.922.311-.913.981.027,2.126.022,4.253,0,6.379-.006.61.143.955.84.921.179-.009.371.237.557.366a1.7,1.7,0,0,1-.578.253q-2.041.033-4.081,0c-.173,0-.343-.193-.514-.3.165-.113.338-.333.494-.321.8.06.928-.381.921-1.042-.022-1.919-.008-3.839-.008-5.759C1754.025-452.984,1754.025-452.984,1752.371-453.187Z" transform="translate(-1193.342 -240.111)" fill="#fff"/>
    <path id="路径_31" data-name="路径 31" d="M1510.364-453.332c.166-.122.329-.346.5-.349q2.124-.043,4.249,0c.168,0,.331.223.5.342-.161.086-.323.249-.481.245-.7-.02-.921.328-.916.982.019,2.122.016,4.244,0,6.366,0,.595.141.961.841.933.179-.007.369.238.554.368a1.707,1.707,0,0,1-.578.252c-1.328.023-2.656.025-3.984,0-.205,0-.407-.187-.611-.287.191-.117.385-.34.571-.333.686.026.852-.305.845-.922-.023-1.945-.009-3.89-.009-5.835C1511.839-452.985,1511.839-452.985,1510.364-453.332Z" transform="translate(-1001.752 -240.111)" fill="#fff"/>
    <path id="路径_32" data-name="路径 32" d="M1174.559-453.393c-1.385.178-1.386.178-1.386,1.538,0,1.92.016,3.84-.009,5.76-.009.66.1,1.106.909,1.045.158-.012.333.207.5.319-.172.1-.342.3-.516.3q-2.04.037-4.081,0c-.169,0-.334-.207-.5-.319.177-.106.359-.309.529-.3.654.039.839-.341.842-.87.012-2.156-.008-4.312.011-6.468.009-.97-.722-.906-1.366-.991l-.068-.273a2.553,2.553,0,0,1,.727-.269C1173.926-454.081,1174.366-454.027,1174.559-453.393Z" transform="translate(-731.84 -239.878)" fill="#fff"/>
    <path id="路径_33" data-name="路径 33" d="M927.431-453.187c-1.327.244-1.328.244-1.328,1.624,0,1.861.014,3.722-.007,5.583-.008.7.062,1.254.986,1.158.123-.013.27.213.406.328-.149.1-.3.282-.446.284-1.532.021-3.065.013-4.6.013l-.121-.3c.2-.115.405-.334.6-.327.7.026.867-.349.865-.937q-.007-3.19,0-6.38c0-.607-.245-.935-.888-.962-.174-.007-.341-.192-.512-.3.177-.1.352-.291.531-.295q2-.038,3.993,0a1.884,1.884,0,0,1,.63.27Z" transform="translate(-536.218 -240.103)" fill="#fff"/>
    <path id="路径_35" data-name="路径 35" d="M265.34-561l.756,4.252a1.073,1.073,0,0,0-1.751-.118c-.277.24-.054,1.054-.054,1.764.827-.3,1.767.057,1.862-1.345l1.636,4.645a5.786,5.786,0,0,0-1.288.143,16.261,16.261,0,0,0-1.856.831,1.015,1.015,0,0,0-.52,1.476,1.047,1.047,0,0,0,1.417.7,14.977,14.977,0,0,0,2.182-.962c.274-.152.41-.554.667-.927l.79,1.605c-1.246-.686-2.005.1-2.85.436-1.6.643-2.518.223-2.972-1.454a1.468,1.468,0,0,1,.927-2.007c.667-.315,1.335-.638,2.026-.893.547-.2.521-.506.366-.965s-.337-.614-.834-.455c-.814.261-1.666.405-2.474.68a5.3,5.3,0,0,0-1.092.728l-.507-1.845,2.464-.181c-.4-.763-.632-1.668-.923-1.685-.6-.036-1.5-.056-1.778.948l-.556-2.04a9.065,9.065,0,0,0,1.531-.016,13.473,13.473,0,0,0,2.22-.591,1.008,1.008,0,0,0,.544-.685c.065-.474-.212-.77-.75-.729-1.031.079-2.062.149-3.094.217-.224.015-.45,0-.676,0l-.179-.225,3.3-3.339a2.94,2.94,0,0,0-3.3.917l-.24-1.972c1.12.9,3.938.678,4.711-.288a1.772,1.772,0,0,1-.526,2.341c-.689.5-1.312,1.092-2.111,1.767C263.94-559.857,264.859-560.15,265.34-561Z" transform="translate(-12.139 -152.494)" fill="#fff"/>
    <path id="路径_36" data-name="路径 36" d="M493.438-450.183c-.529.93.149,1.465.672,2.053.353.4.692.808,1.052,1.2.323.35.582.956,1.3.071l.021.433-1.723,1.48a5.777,5.777,0,0,0-.553-1.253c-.63-.808-1.333-1.559-1.991-2.316-1.233.709-1.273.865-.576,1.949q.856,1.331,1.718,2.659l-.13.264-4.579-1.3a3.171,3.171,0,0,0,2.315,2.581l-1.336.863a11.6,11.6,0,0,0-.534-1.638,7.337,7.337,0,0,0-1.068-1.622c-.212-.236-.659-.264-1-.385-.084.357-.305.749-.224,1.063.168.65.523,1.249.755,1.885.42,1.149.027,1.859-1.276,2.379a1.6,1.6,0,0,1-2.393-.88c-.279-.618-.5-1.268-.815-1.863a4.812,4.812,0,0,0-.829-.869l1.853-.8a8.211,8.211,0,0,0,.174,1.437,12.859,12.859,0,0,0,.72,1.711,1.039,1.039,0,0,0,1.5.635c.694-.308,1.026-.777.7-1.548a14.761,14.761,0,0,0-.693-1.624,8.222,8.222,0,0,0-.958-1.138c.717-.4,1.634-.937,2.584-1.411.192-.1.516.029.766.1.93.259,1.854.538,2.826.822-.319-1.286-.93-1.9-1.927-1.912l3.668-3.009Z" transform="translate(-187.816 -242.898)" fill="#fff"/>
    <path id="路径_37" data-name="路径 37" d="M312.022-459.108l1.491-.217-1.242,1.84-.332-1.474-.269-.04a11.435,11.435,0,0,0-.864,1.27.692.692,0,0,0,.191.634,1.576,1.576,0,0,0,1.965.17.762.762,0,0,1,.642-.1l-1.05,1.387-3.5-2.365a6.736,6.736,0,0,0,1.123-.943c.587-.771,1.093-1.6,1.62-2.394-.864-1.182-.952-1.187-1.89-.147-.454.5-.945.983-1.345,1.527a5.05,5.05,0,0,0-.45,1.173l-1.644-1.474c1.585-.15,1.911-1.607,2.9-2.3l-.142-.209-3.413,1.883-.228-.167,1.5-3.756c-.814.935-2.272,1.427-2.1,3.162l-1.342-1.154c1.158.105,1.554-.813,2.05-1.446.467-.6,1.593-.914,1.078-2.1.519.582,1.626.7,1.432,1.731a14.941,14.941,0,0,1-.946,2.443c.88-.476,1.5-.844,2.152-1.148a.935.935,0,0,1,.765-.05c1.62,1.217,3.209,2.475,4.883,3.781l-.945,1.433c.015-1.566-.337-2.51-.972-2.423-.478.065-.876.712-1.309,1.1Z" transform="translate(-46.425 -230.099)" fill="#fff"/>
    <path id="路径_38" data-name="路径 38" d="M455.957-734.067c-.071-.757-.141-1.514-.22-2.359l-1.44.488c.183-.5.205-.925.414-1.054.705-.434.676-1,.482-1.659a4.049,4.049,0,0,0-1.995,2.98l-.378-.907-1.619.29c-.348-1.284.939-1.416,1.358-2.19l-1.225-.117c.357-.312.562-.513.789-.684.724-.547,1.446-1.1,2.193-1.613a1.8,1.8,0,0,1,.66-.137l.14.352-2.814,1.685c.99.28,1.115.211,1.813-.4a1.651,1.651,0,0,1,.957-.173c.5-.011.992.036,1.513.06a10.448,10.448,0,0,1,.278-1.133c.058-.161.262-.391.379-.38a.586.586,0,0,1,.4.38,1.6,1.6,0,0,1,.024,1.006c-.523.886-.155,1.42.575,1.887a.536.536,0,0,1,.165.2c.024.045,0,.113,0,.172-.036.046-.07.13-.106.131a1.359,1.359,0,0,0-1.533,1.381,7.977,7.977,0,0,1-.638,1.8Z" transform="translate(-163.197 -12.644)" fill="#fff"/>
    <path id="路径_39" data-name="路径 39" d="M536.02-477.349l1.479-1.468a6.166,6.166,0,0,0,1,.839c.6.313,1.243.529,2.144.9-.469-.995-.792-1.791-1.228-2.519-.1-.174-.591-.119-.912-.171l3.852-4.75,1.309.937c-1.04-.067-2.056-.038-2.382,1.087-.081.28.691.806,1.071,1.219l.277-.1v-1.513l1.7,1.33-1.485.254-.039.264,1.4,1.117c1.058-.767,1.137-1.163.513-3.024l1.51,1.232-2.738,3.5c.183-.829-.415-1.12-.893-1.487-.724-.555-1.441-1.118-2.175-1.688a1.222,1.222,0,0,0-.49,1.713c.49,1.073.974,2.148,1.435,3.233a1.86,1.86,0,0,1,.031.632,1.97,1.97,0,0,1-.652,0c-.75-.267-1.472-.615-2.228-.861-.825-.268-1.675-.458-2.517-.684Z" transform="translate(-230.379 -215.716)" fill="#fff"/>
    <path id="路径_40" data-name="路径 40" d="M398.522-740.129v2.107a2.038,2.038,0,0,1-.644-2.823l-.344-.219-.562,1.051-.345-.163.227-.761-.3-2.307.663.253-.307-1.712c1.3-.446.693.781.987,1.436a8.718,8.718,0,0,1,.81-1.529,4.945,4.945,0,0,1,1.117-.783,3.922,3.922,0,0,1,.242,1.181,1.891,1.891,0,0,0,1.009,2.125l-1.12.39c.994.4,1.6,2.4,1.109,3.707l-.884-.317-.825.423c-.057-.314-.1-.633-.177-.942-.1-.4-.236-.783-.356-1.173Zm.471-2.308-.148-.168.808-.845-.111-1.406-.3-.09-1.561,3.5,2-.914-.062-.17Zm1.472,3.545.337-.043c-.165-.888-.331-1.776-.52-2.795C399.035-740.759,399.1-740.361,400.465-738.892Z" transform="translate(-119.98 -9.042)" fill="#fff"/>
    <path id="路径_41" data-name="路径 41" d="M554.078-674.867l1.429,1.031.222-.282c-.274-.766-.993-1.021-1.733-1.239-.165-.049-.365.016-.526-.038a2.961,2.961,0,0,1-.534-.307c.164-.171.3-.435.5-.493a13.477,13.477,0,0,1,1.589-.27l-.96-.45a1.268,1.268,0,0,1,1.784-.518l-.269.579,1.275-.639.386.439-1.028.427c1.071.076,1.663.491,1.619,1.542-.041.975-.81.912-1.47.976-.173.9-.327.952-1.155.628a13.231,13.231,0,0,0-1.68-.407,4.739,4.739,0,0,1,.174.7c.014.29-.008.582-.014.873a2.406,2.406,0,0,0-.578-.355c-.591-.162-1.2-.275-1.937-.44l1.173-1.68C552.907-674.657,553.575-673.249,554.078-674.867Z" transform="translate(-242.384 -62.856)" fill="#fff"/>
    <path id="路径_42" data-name="路径 42" d="M295.423-678.436l1.882.212-1.592-1.386.156-.256,1.162.569c.239-.57.383-1.368,1.29-.957.688.311.774,1.612.181,2.537l.664.742c.419-.98.5-2.112,1.607-2.512l.279.2-.83,1.069.467,1.01,1.306-.161.055.205a2.6,2.6,0,0,1-.571.287c-.462.105-.694.3-.676.836.027.823-.621.92-1.385,1.077l.989-1.222c-.7-.13-1.039-.016-1.059.635a3.734,3.734,0,0,1-.2.861c-.222.79-.468.872-1.254.445l1.183-2.287-1.026-1.074.174.915c-1.5.409-2.06-.773-2.88-1.5Z" transform="translate(-39.861 -60.668)" fill="#fff"/>
    <path id="路径_43" data-name="路径 43" d="M588.049-561.3h1.3l.033.132a6.7,6.7,0,0,0-1.093.563c-.177.134-.221.444-.325.675a2.164,2.164,0,0,0,.6.239c.823.065,1.649.1,2.475.131.9.031.9.022,1.442-.747-.045.933-.083,1.7-.114,2.338a4.514,4.514,0,0,0-1.1-.425c-.91-.082-1.828-.095-2.742-.1-.2,0-.583.134-.584.213a.97.97,0,0,0,.237.693,11.4,11.4,0,0,1,1.055.785,3.784,3.784,0,0,0-.841-.041,2.086,2.086,0,0,0-.6.319c.132.161.24.426.4.465,1.031.25,2.069.48,3.116.642.229.036.5-.227.874-.411l-.448,2.334c-.353-1.159-1.418-.9-2.166-1.028s-1.625-.938-2.4.1c-.041-.084-.107-.153-.1-.215.2-1.957.4-3.915.63-5.869a2.945,2.945,0,0,1,.372-.813Z" transform="translate(-270.807 -154.909)" fill="#fff"/>
    <path id="路径_44" data-name="路径 44" d="M574.847-501.772l-.444-.762c.171.021.271,0,.321.043a1.02,1.02,0,0,1,.162,1.491.914.914,0,0,1-1.376.292c-.668-.374-1.337-.8-1.81.393.72.2,1.143,1.3,2.272.618l-1.238,2.055c-.363-1.531-1.847-1.6-2.747-2.316-.29-.231-.8-.193-1.3-.3.552-.864,1.148-1.93,1.892-2.88a1.506,1.506,0,0,1,1.3-.342c.723.194.786.859.624,1.46Zm-3.585,1.267c.8-1.034.82-1.494.19-1.9a.828.828,0,0,0-1.337.473C569.679-500.831,570.946-501.11,571.262-500.5Z" transform="translate(-256.252 -200.678)" fill="#fff"/>
    <path id="路径_45" data-name="路径 45" d="M350.578-427.964c1.6-.592,1.587-2.1,2.25-3.105.162-.245.024-.687.024-1.145,1.082.543,2.46.883,3.365,2.023a2.183,2.183,0,0,1-.185,2.706,1.946,1.946,0,0,1-2.3.885C352.67-426.971,351.657-427.49,350.578-427.964Zm3.625-3.17c-.533,1.085-1.06,2.128-1.548,3.189a.641.641,0,0,0,.094.583,1.145,1.145,0,0,0,1.778-.114,6.666,6.666,0,0,0,.857-1.523C355.854-430.167,355.583-430.659,354.2-431.134Z" transform="translate(-83.583 -257.124)" fill="#fff"/>
    <path id="路径_46" data-name="路径 46" d="M586.152-520.141l-1.506-.531.022-.2A2.517,2.517,0,0,0,585.2-521a4.781,4.781,0,0,0,1.354-.744c.4-.4.624-1.012,0-1.457s-.889.13-1.194.511c-.276.345-.517.719-.8,1.056a1.274,1.274,0,0,1-1.673.358,1.366,1.366,0,0,1-.747-1.633,5.722,5.722,0,0,1,.442-1.047c.135-.3.275-.6.468-1.026l1.409.444-.012.191a3.364,3.364,0,0,0-.951.291,2.85,2.85,0,0,0-.957.945c-.114.218.131.622.214.942a2.431,2.431,0,0,0,.9-.3,7.188,7.188,0,0,0,.78-1.069,1.514,1.514,0,0,1,2.026-.511,1.442,1.442,0,0,1,.685,1.883,7.662,7.662,0,0,1-.467.944C586.52-520.913,586.375-520.605,586.152-520.141Z" transform="translate(-266.864 -183.684)" fill="#fff"/>
    <path id="路径_47" data-name="路径 47" d="M260.888-584.632l.092-1.82c.511-.048,1.277-.009,1.308-.141a7.438,7.438,0,0,0,.033-1.761l-1.246.171.073-1.316c1.4.729,2.81,1.457,4.212,2.2a3.322,3.322,0,0,1,.514.418c-.18.162-.334.39-.546.475-.9.365-1.825.676-2.731,1.029C262.041-585.159,261.5-584.9,260.888-584.632Zm3.635-2.639-1.594-.743v1.3Z" transform="translate(-12.578 -132.606)" fill="#fff"/>
    <path id="路径_48" data-name="路径 48" d="M421.381-406.691h-1.343c.7-1.407,1.415-2.856,2.148-4.294.083-.162.3-.4.4-.374a.788.788,0,0,1,.465.413c.433,1.031.824,2.081,1.243,3.118.164.4.365.793.616,1.333l-1.7-.082c-.121-.565-.147-1.313-.312-1.345a6.663,6.663,0,0,0-1.756.087Zm.826-3.405-.746,1.6H422.8Z" transform="translate(-138.573 -273.632)" fill="#fff"/>
    <path id="路径_49" data-name="路径 49" d="M588.8-579.091a2.866,2.866,0,0,1-.381-.718c-.1-.475-.114-.967-.172-1.525,1.115.72,1.325-.407,2.015-.642-1.24-.85-1.468-.862-2.087-.059-.071-.657-.129-1.2-.186-1.731a15.74,15.74,0,0,0,2.25,1.149,5.034,5.034,0,0,0,1.96.127c.2-.017.361-.477.626-.858l.279,2.583c-1.183-1.072-3.472-.115-4.329,1.7Z" transform="translate(-271.536 -137.144)" fill="#fff"/>
    <path id="路径_50" data-name="路径 50" d="M400.379-411.348a1.692,1.692,0,0,1-2.009,1.56,2.265,2.265,0,0,1-2.078-1.545,2.6,2.6,0,0,1,.66-2.851,2.4,2.4,0,0,1,2.723-.4c.348.136.718.215,1.2.355l-.217,1.629-.185.011a3.058,3.058,0,0,0-.415-1.084,2.22,2.22,0,0,0-1.267-.757c-.324-.017-.833.459-.983.827a4.987,4.987,0,0,0-.4,2.053,1.569,1.569,0,0,0,.75,1.218,2.925,2.925,0,0,0,1.6-.338C399.984-410.751,400.127-411.059,400.379-411.348Z" transform="translate(-119.642 -270.891)" fill="#fff"/>
    <path id="路径_51" data-name="路径 51" d="M446.606-412.215c-.978.059-.86.584-.76,1.133.117.638.143,1.3.3,1.923a6.232,6.232,0,0,0,.539,1.157,12.216,12.216,0,0,0,1.529-.889c.208-.161.239-.551.36-.864.108.092.178.122.182.159.165,1.573.166,1.586-1.351,1.832-.9.146-1.806.247-2.75.373.7-1,.155-4.274-.733-4.692l2.424-.376Z" transform="translate(-157.478 -272.763)" fill="#fff"/>
    <path id="路径_52" data-name="路径 52" d="M515.649-712.814c-.6-.131-1.223-.221-1.811-.4a1.475,1.475,0,0,0-1.609.311,3.587,3.587,0,0,1-1.367.567c-.609.182-.829-.224-.986-.7l2.293-.273-1.287-1.647.193-.161a1.087,1.087,0,0,1,.217.11c1.428,1.186,1.857.9,2.616-.894a2.728,2.728,0,0,1,.336-.479c.112.207.368.47.313.611-.234.59-.561,1.144-.926,1.852h1.131l.037-.2.992,1.056Z" transform="translate(-209.695 -32.152)" fill="#fff"/>
    <path id="路径_53" data-name="路径 53" d="M288.318-489.956l1.313,2.2c-1.224-.492-4.141,1.249-4.181,2.369l-1.185-1.97c1.557.127,2.448-1.076,3.6-1.634C288.084-489.1,288.136-489.548,288.318-489.956Z" transform="translate(-31.086 -211.411)" fill="#fff"/>
    <path id="路径_54" data-name="路径 54" d="M377.634-421.812l2.455.809c-1.508.737-1.2,2.331-1.753,3.463-.11.224.1.6.184,1.058l-2.486-.814C377.366-417.531,378.455-420.812,377.634-421.812Z" transform="translate(-103.736 -265.359)" fill="#fff"/>
    <path id="路径_55" data-name="路径 55" d="M344.63-715.8l.565,1.287.608-.915.452,2.482.269-.032.17-.958c.226.608.5,1.256.7,1.93.06.211-.048.638-.2.7a4.411,4.411,0,0,1-1.21.156,3.721,3.721,0,0,0,.219-.916.9.9,0,0,0-.277-.654c-.637-.37-.654-.342-.56-1.012a1.937,1.937,0,0,1-.924-2.126s.142.057.218.087Z" transform="translate(-78.665 -32.575)" fill="#fff"/>
    <path id="路径_56" data-name="路径 56" d="M357.159-714.943c-.449-.352-.939-.542-1-.824-.132-.62-.676-1.276-.225-1.93l.319-.035.284,1.568,2.828,1.839-.116.254c-.205-.035-.412-.063-.616-.1-.386-.08-.748-.18-.923.359a.593.593,0,0,1-.513.28,1.451,1.451,0,0,1-.663-.491c-.044-.055.2-.347.326-.522C357-714.744,357.15-714.931,357.159-714.943Z" transform="translate(-87.685 -31.088)" fill="#fff"/>
    <path id="路径_57" data-name="路径 57" d="M337.977-713.119c1.084.219,1.084.219.7,1.943.967-.021,1.115.517.9,1.317-.09.328-.176.552.426.51.272-.018.6.792.8,1.29a2.425,2.425,0,0,1-1.813-2.437C337.32-710.929,338.689-712.369,337.977-713.119Z" transform="translate(-73.607 -34.739)" fill="#fff"/>
    <path id="路径_58" data-name="路径 58" d="M522.157-695.9c.713.1,1.358,1.311.97,1.841a.78.78,0,0,1-.661.256.733.733,0,0,1-.372-.561A13.238,13.238,0,0,1,522.157-695.9Z" transform="translate(-219.36 -48.369)" fill="#fff"/>
    <path id="路径_59" data-name="路径 59" d="M345.637-718.634l.028.033a1.887,1.887,0,0,1,1.638-.833C347.3-718.67,346.646-718.386,345.637-718.634Z" transform="translate(-79.671 -29.74)" fill="#fff"/>
    <path id="路径_61" data-name="路径 61" d="M409.912-531.721a5.5,5.5,0,0,1-4.5.355C407.234-533.167,408.718-533.278,409.912-531.721Z" transform="translate(-126.992 -177.486)" fill="#fff"/>
    <g id="组_7653" data-name="组 7653" transform="translate(255.845 -746.165)">
      <path id="路径_34" data-name="路径 34" d="M326.174-646.7a29.059,29.059,0,0,1-29.116-29.309,29.154,29.154,0,0,1,29.214-28.98,29.1,29.1,0,0,1,29.15,29.478A29.044,29.044,0,0,1,326.174-646.7Zm1.22-27.8v-9.372c-1.425.286-1.419.285-1.394,1.514.051,2.559.093,5.118.144,7.677a6.046,6.046,0,0,0,.087.659l1.2-.51c-.59.433-1.195.847-1.767,1.3a2.946,2.946,0,0,0,.4,4.848c0-.93.02-1.813-.008-2.694a.928.928,0,0,1,.619-1,19.065,19.065,0,0,0,3.151-1.942,2.04,2.04,0,0,0,.765-2.515,2.9,2.9,0,0,0-2.761-1.824,5.828,5.828,0,0,0,.195,1.976C328.515-675.349,328.46-674.912,327.394-674.5Zm-1.944-2.118c.115-1.3.428-2.525-1.156-3.063a2.012,2.012,0,0,1-.727-.635,1.483,1.483,0,0,1,.332-2.467,7.408,7.408,0,0,1,1.688-.766c1.714-.549,3.453-1.019,5.165-1.575a6.609,6.609,0,0,0,4.033-3.251,3.555,3.555,0,0,0,.083-3.474,6.917,6.917,0,0,0-6.846-3.136v2.651a19.82,19.82,0,0,1,2.771.393,1.988,1.988,0,0,1,.951,3.411,3.213,3.213,0,0,1-1.111.855c-1.674.646-3.4,1.169-5.059,1.836a18.864,18.864,0,0,0-3.7,1.8,3.092,3.092,0,0,0-.749,4.521A7.086,7.086,0,0,0,325.45-676.616Zm2.336,5.546a11.151,11.151,0,0,1,6.474.1c1.815.591,3.741.838,5.574,1.385a12.528,12.528,0,0,1,4.9,2.946c.759.7.609,1.239-.4,1.479a6.492,6.492,0,0,1-5.128-.631,10.547,10.547,0,0,0-2.335-1.041,2.426,2.426,0,0,0-2.554.554c-.717.7-.66,1.284.224,1.737.441.226.961.3,1.4.525.284.145.675.435.684.672a1.05,1.05,0,0,1-.587.773,3.194,3.194,0,0,1-3.2-.242,7.217,7.217,0,0,0-5.23-1.075v1.035a3.176,3.176,0,0,0,.476.049,6.971,6.971,0,0,1,4.6,1.226,4.123,4.123,0,0,0,4.633-.517,1.589,1.589,0,0,0-.486-2.793,16.239,16.239,0,0,0-1.534-.582l.021-.228a4.593,4.593,0,0,1,1.383.025,13.069,13.069,0,0,1,2.163,1,7.033,7.033,0,0,0,6.062.484c1.664-.605,1.937-1.843.743-3.151a3.9,3.9,0,0,0-.391-.359,14.874,14.874,0,0,0-5.43-3.09c-1.814-.511-3.7-.762-5.5-1.318a11.38,11.38,0,0,0-5.753-.325C327.771-672.278,327.513-672,327.786-671.07Zm-16.348,13.949c0-.363,0-.68,0-1-.052-3.954-.3-7.918-.1-11.86.163-3.259-1.028-5.454-3.874-6.871-.053-.026-.1-.055-.156-.084a2.922,2.922,0,0,1-1.661-3.6,6.484,6.484,0,0,1,.854-2.209,9.554,9.554,0,0,1,9.423-4.4,9.524,9.524,0,0,1,5.993,2.618l.879-.62a11.245,11.245,0,0,0-11.7-2.568c-3.226,1.146-5.628,3.2-6.469,6.6-.688,2.782.248,4.265,2.172,5.2.448.219.841.547,1.273.8a4.228,4.228,0,0,1,2.112,4.082c-.05,3.158.009,6.318.018,9.477,0,1.465,0,2.93,0,4.431Zm14.508-29.126c1.487-.044,1.641-.2,1.649-1.491.016-2.742,0-5.485.079-8.225.034-1.128-.119-2.279.772-3.315a2.191,2.191,0,0,0-.5-2.941,1.788,1.788,0,0,0-2.351.006,2.45,2.45,0,0,0-.479,3.056,5.2,5.2,0,0,1,.311.426,2.874,2.874,0,0,1,.377,1.011c.07,2.887.1,5.775.139,8.662C325.956-688.12,325.946-687.184,325.946-686.247Zm-.144,10.688c-1.645-.372-3.142-.809-4.672-1.025a15.883,15.883,0,0,0-3.679-.059,2.818,2.818,0,0,0-2.372,1.9,8.6,8.6,0,0,0-.372,5.794c.462,1.564,1.35,1.848,2.6.834.367-.3.736-.591,1.1-.9a7.293,7.293,0,0,1,4.058-1.8c.576-.059,1.151-.131,1.725-.2V-672.1c-.665.041-1.278.057-1.886.12a10.128,10.128,0,0,0-5.511,2.8c-.623.531-.859.439-1.06-.355a7.638,7.638,0,0,1,.363-4.684,2.06,2.06,0,0,1,1.714-1.357,8.342,8.342,0,0,1,4.01.369,8,8,0,0,0,3.985.435Zm1.851-8.072c.409.05.625.09.843.1a5.714,5.714,0,0,1,3.652,1.323,32.791,32.791,0,0,0,3.392,2.219c.908.6,1.813,1.2,2.682,1.855.46.345.43.816-.116,1.036a11.278,11.278,0,0,1-2.817.921,37.513,37.513,0,0,1-4.2.04l-.122,1.06c.686.061,1.272.149,1.859.159,2.138.037,4.273.042,6.1-1.353a1.484,1.484,0,0,0,.3-2.425,8.051,8.051,0,0,0-2.046-1.665,30.2,30.2,0,0,1-5.333-3.464A3.388,3.388,0,0,0,327.653-683.631Zm-2.315-11.484c-1.669.507-3.148.884-4.573,1.41a2.841,2.841,0,0,0-1.943,2.873c.008.425.445,1.173.749,1.207a4.989,4.989,0,0,0,4.028-.826c.519-.439,1.052-.862,1.564-1.309a.565.565,0,0,0,.168-.375C325.345-693.04,325.338-693.944,325.338-695.115Zm-8.928,37.766c0-1.848-.02-3.614.006-5.38a2.354,2.354,0,0,1,2.7-2.548,3.524,3.524,0,0,1,2.605,1.124,4.486,4.486,0,0,0,4.253,1.231v-1.04a3.6,3.6,0,0,0-.716-.069,3.288,3.288,0,0,1-3-1.176,3.039,3.039,0,0,0-.619-.5c-2.588-1.727-5.883-.586-6.284,2.34a44.871,44.871,0,0,0-.051,6.018ZM327.3-671.986c-.655.053-1.025.258-1.016,1.067.047,4.161.03,8.323.04,12.485a3.039,3.039,0,0,0,.069.79c.035.129.235.312.34.3a.589.589,0,0,0,.432-.3,3.212,3.212,0,0,0,.074-.876c.024-2.332.049-4.663.06-6.995C327.305-667.663,327.3-669.811,327.3-671.986Zm-4.815,1.992a6.3,6.3,0,0,0-3.852,1.664.807.807,0,0,0,.41,1.465c1.885.44,3.775.738,5.632-.179.807-.4,1.01-1.029.384-1.674A3.5,3.5,0,0,0,322.483-669.993Zm.871,18.476h2.786v-4.354c-.83,0-1.617-.018-2.4.016-.145.006-.4.218-.4.342a6.352,6.352,0,0,0,.1,2.089c.064.2.956.14,1.468.2a3.218,3.218,0,0,1,.316.077l-.039.8-1.825-.434Zm6.542.055c.829,0,1.592.024,2.35-.019a.61.61,0,0,0,.427-.412c.045-.723.02-1.451.02-2.208l-1.868-.085c.013-.286.024-.528.038-.84l1.722.429.259-.3c-.21-.325-.379-.886-.637-.931a13.848,13.848,0,0,0-2.311-.045Zm-1.586-.952c1.254-.94,1.229-2.147.972-3.5-.595,0-1.15,0-1.706,0-1.04,0-1.215.2-1.024,1.259.033.18.244.46.375.461.2,0,.564-.169.588-.312.115-.679.5-.475,1.083-.349a6.493,6.493,0,0,1-.6,1.081c-.341.4-.809.7-1.131,1.111a1.545,1.545,0,0,0-.259.946c0,.1.467.238.727.253.641.037,1.285.012,1.988.012v-.906Zm-8.546-24.4a11.627,11.627,0,0,0,1.666-.574.825.825,0,0,0,.171-.789,3.144,3.144,0,0,0-4.516-.287c-.407.484-.345.882.279,1.064C318.119-677.181,318.892-677.024,319.764-676.815Zm1.379,22.363.207-.006c0,.794-.036,1.59.024,2.379.016.216.321.411.494.616.179-.2.5-.4.514-.607.056-1,.031-2,.025-3,0-.372.071-.885-.518-.787a5.922,5.922,0,0,0-1.291.536Zm7.225-10.293a3.8,3.8,0,0,0-.835-3.811C327.66-667.242,327.148-665.869,328.368-664.745Zm-10.726-24.017.408.831.978-1.964c-1.438-.15-2.193.29-2.492,1.388Z" transform="translate(-297.058 704.991)" fill="#fff"/>
      <path id="路径_60" data-name="路径 60" d="M410.553-644.3l.756.854c-.273.211-.533.561-.823.588-.209.019-.61-.371-.642-.616C409.817-643.669,410.212-643.923,410.553-644.3Z" transform="translate(-386.346 656.942)" fill="#fff"/>
      <path id="路径_62" data-name="路径 62" d="M427.183-464.872h1.083c-.052.29-.026.607-.171.781a.662.662,0,0,1-.652,0C427.288-464.211,427.286-464.524,427.183-464.872Z" transform="translate(-400.074 514.896)" fill="#fff"/>
      <path id="路径_63" data-name="路径 63" d="M459.956-456.7v.866l-.913.057c-.022-.3-.041-.541-.065-.862Z" transform="translate(-425.245 508.425)" fill="#fff"/>
    </g>
    <path id="路径_64" data-name="路径 64" d="M401.6-576.847h-1.776a1.276,1.276,0,0,1,1.767-.349Z" transform="translate(-122.569 -142.184)" fill="#fff"/>
  </g>
</svg>
