<svg width="181" height="66" viewBox="0 0 181 66" fill="none" xmlns="http://www.w3.org/2000/svg">
<g clip-path="url(#clip0_54853_225)">
<path d="M51.9172 60.8724H51.7916L47.2751 46.7241H41.7237V47.3061H43.3889V65.0214H41.5768V65.6738H46.2146V65.0214H44.3983V47.7368H44.5494L50.4287 65.7996C50.4543 65.8508 51.2869 65.8508 51.3125 65.7996L57.6453 48.0651H57.7965V65.0214H55.8822V65.6738H62.2619V65.0214H60.5456V51.551C60.5456 50.4637 60.5711 48.2911 60.6222 47.3061H62.313V46.7241H57.0895L51.9172 60.8724Z" fill="#001E5F"/>
<path d="M74.4123 62.5141C73.6052 63.3221 72.5448 64.2581 69.8958 64.2581C67.4235 64.2581 65.5305 62.2113 65.4794 58.2201H74.5124C74.5635 54.2289 72.5938 51.8538 69.0632 51.8538C65.3282 51.8538 62.9326 54.7854 62.9326 59.0793C62.9326 63.3733 65.3303 66.0021 69.2655 66.0021C72.0167 66.0021 73.8821 64.2581 74.4889 62.9959C74.5656 62.819 74.54 62.4139 74.4123 62.5162V62.5141ZM68.9865 52.5595C70.8285 52.5595 71.7612 54.1266 71.7612 57.2586L65.4794 57.5101C65.6306 54.0754 67.1701 52.5595 68.9865 52.5595Z" fill="#001E5F"/>
<path d="M87.6548 64.4841V49.7558H87.6526L87.6505 46.2465C87.6505 46.1953 87.4567 46.0695 87.4077 46.0695L83.8729 49.0651L83.8644 49.4765C84.3563 49.6023 84.6523 49.6791 85.1463 49.8305C85.1633 50.63 85.157 51.4039 85.1506 52.18H85.0334C84.5799 52.0542 83.3938 51.8772 82.459 51.8772C78.9518 51.8772 75.4447 54.3782 75.4447 59.3544C75.4447 63.5481 77.868 65.9232 80.8939 65.9488C83.1404 65.9744 84.4777 64.6611 85.1335 64.0044H85.2592V65.7975C85.2847 65.8486 85.4104 65.9744 85.4359 65.9744C87.0244 65.6972 87.757 65.5203 89.3476 65.2922C89.4243 65.2922 89.4243 64.838 89.3732 64.838C88.6151 64.7122 88.4895 64.6867 87.6569 64.4841H87.6548ZM85.1058 63.3989C84.6523 63.8274 84.071 64.4862 82.0033 64.4607C79.7078 64.4351 77.9915 62.2625 77.9915 58.5229C77.9915 54.4805 80.0357 52.6363 82.508 52.6363C83.5918 52.6363 84.5778 53.0648 85.1058 53.5957V63.3968V63.3989Z" fill="#001E5F"/>
<path d="M92.7359 49.8561C93.5685 49.8561 94.2243 49.1994 94.2243 48.3913C94.2243 47.5833 93.5685 46.9266 92.7359 46.9266C91.9033 46.9266 91.2729 47.5833 91.2729 48.3913C91.2729 49.1994 91.9288 49.8561 92.7359 49.8561Z" fill="#001E5F"/>
<path d="M94.0204 54.0626C94.0459 53.3078 93.9948 52.6277 94.0204 51.9966C94.0204 51.9454 93.8692 51.8196 93.8436 51.8196C92.5617 52.1714 91.8313 52.374 90.1959 52.7769C90.1214 52.7769 90.1448 53.2055 90.1704 53.2055C90.6474 53.3313 91.0051 53.3824 91.5098 53.5573C91.5353 54.6659 91.5098 55.6979 91.5098 56.7809V62.3477C91.5098 63.32 91.5289 64.2687 91.5098 65.0427H90.147V65.6716H95.4109V65.0427H94.0204V54.0626Z" fill="#001E5F"/>
<path d="M106.92 62.6655C106.037 63.5247 104.625 64.3584 102.808 64.3328C100.134 64.3328 98.2664 62.1858 98.2664 58.395C98.2664 54.6042 100.26 52.7365 102.732 52.7365C104.22 52.7365 105.129 53.519 106.29 54.4294H106.416C106.567 54.4294 106.541 52.5084 106.416 52.4594C105.381 52.0799 104.423 51.8773 102.757 51.8773C99.3758 51.8773 95.7941 54.504 95.7941 59.2798C95.7941 63.271 98.392 66.0001 101.976 66.0001C104.525 66.0001 106.416 64.5098 107.023 63.1197C107.099 62.9683 106.997 62.6144 106.922 62.6655H106.92Z" fill="#001E5F"/>
<path d="M110.184 49.8561C111.017 49.8561 111.673 49.1994 111.673 48.3913C111.673 47.5833 111.017 46.9266 110.184 46.9266C109.352 46.9266 108.721 47.5833 108.721 48.3913C108.721 49.1994 109.377 49.8561 110.184 49.8561Z" fill="#001E5F"/>
<path d="M111.468 54.0626C111.493 53.3078 111.442 52.6277 111.468 51.9966C111.468 51.9454 111.317 51.8196 111.291 51.8196C110.009 52.1714 109.279 52.374 107.643 52.7769C107.569 52.7769 107.592 53.2055 107.618 53.2055C108.095 53.3313 108.453 53.3824 108.957 53.5573C108.983 54.6659 108.957 55.6979 108.957 56.7809V62.3477C108.957 63.32 108.976 64.2687 108.957 65.0427H107.594V65.6716H112.858V65.0427H111.468V54.0626Z" fill="#001E5F"/>
<path d="M139.627 62.5141C138.82 63.3221 137.76 64.2581 135.111 64.2581C132.639 64.2581 130.746 62.2113 130.694 58.2201H139.727C139.779 54.2289 137.809 51.8538 134.278 51.8538C130.543 51.8538 128.148 54.7854 128.148 59.0793C128.148 63.3733 130.545 66.0021 134.481 66.0021C137.232 66.0021 139.097 64.2581 139.704 62.9959C139.781 62.819 139.755 62.4139 139.627 62.5162V62.5141ZM134.202 52.5595C136.044 52.5595 136.976 54.1266 136.976 57.2586L130.694 57.5101C130.846 54.0754 132.385 52.5595 134.202 52.5595Z" fill="#001E5F"/>
<path d="M126.298 55.6553C126.298 52.8601 124.99 51.8772 122.752 51.8772C120.991 51.8772 118.853 52.7087 117.595 53.9432H117.52V51.954C117.52 51.9028 117.369 51.777 117.318 51.777C115.834 52.18 115.457 52.3058 113.747 52.7343C113.696 52.7343 113.696 53.1629 113.721 53.1629C114.224 53.2887 114.582 53.3398 115.059 53.5147C115.084 54.6233 115.059 55.6553 115.059 56.7383V62.3051C115.059 63.3072 115.082 64.2197 115.059 65.0001H113.7V65.629H118.97V65.3135C118.975 65.258 118.975 65.209 118.97 65.1749V65.0001H117.62V54.6489C118.451 53.8942 119.909 53.3654 121.317 53.3654C123.204 53.3654 123.757 54.3227 123.757 56.3119V62.3051C123.757 63.3157 123.757 64.1771 123.736 65.0001H122.394V65.629H127.637V65.0001H126.298V55.6574V55.6553Z" fill="#001E5F"/>
<path d="M85.3706 35.6565C85.3706 31.1345 88.2964 28.4822 91.9058 28.4822C95.5151 28.4822 98.541 30.9575 98.541 35.4796C98.541 40.0017 95.6408 42.6284 92.0314 42.6284C88.4221 42.6284 85.3706 40.1531 85.3706 35.6565ZM95.8665 35.631C95.8665 30.7805 94.2779 29.2412 91.9058 29.2412C89.6614 29.2412 88.0707 30.8829 88.0707 35.5052C88.0707 40.3556 89.6592 41.9205 92.0314 41.9205C94.2758 41.9205 95.8665 40.2277 95.8665 35.631Z" fill="#001E5F"/>
<path d="M42.7248 35.6565C42.7248 31.1344 45.6506 28.4821 49.26 28.4821C52.8693 28.4821 55.8952 30.9575 55.8952 35.4795C55.8952 40.0016 52.9949 42.6283 49.3856 42.6283C45.7762 42.6283 42.7248 40.153 42.7248 35.6565ZM53.2207 35.6309C53.2207 30.7805 51.6321 29.2411 49.26 29.2411C47.0156 29.2411 45.4249 30.8828 45.4249 35.5051C45.4249 40.3556 47.0134 41.9205 49.3856 41.9205C51.63 41.9205 53.2207 40.2276 53.2207 35.6309Z" fill="#001E5F"/>
<path d="M111.251 39.2938C111.328 39.2426 111.428 39.5965 111.351 39.7479C110.747 41.138 108.854 42.6283 106.305 42.6283C102.723 42.6283 100.123 39.8993 100.123 35.9102C100.123 31.1365 103.705 28.5098 107.086 28.5098C108.751 28.5098 109.71 28.7124 110.744 29.0897C110.87 29.1409 110.896 31.0598 110.744 31.0598H110.619C109.458 30.1494 108.549 29.3669 107.063 29.3669C104.59 29.3669 102.597 31.3114 102.597 35.0254C102.597 38.7394 104.465 40.961 107.139 40.961C108.956 40.9866 110.368 40.153 111.251 39.2938Z" fill="#001E5F"/>
<path d="M126.611 35.7077C126.611 31.4138 129.009 28.4843 132.742 28.4843C136.274 28.4843 138.242 30.8594 138.191 34.8506H129.16C129.211 38.8418 131.102 40.8886 133.574 40.8886C136.223 40.8886 137.284 39.9548 138.091 39.1467C138.216 39.0465 138.242 39.4495 138.167 39.6264C137.563 40.8886 135.695 42.6326 132.946 42.6326C129.011 42.6326 126.613 39.9036 126.613 35.712L126.611 35.7077ZM129.16 34.1407L135.442 33.8869C135.442 30.7549 134.509 29.1879 132.667 29.1879C130.825 29.1879 129.311 30.7038 129.16 34.1385V34.1407Z" fill="#001E5F"/>
<path d="M140.032 41.7691C139.907 41.6924 140.007 39.571 140.083 39.571H140.235C141.344 40.8587 142.379 41.7947 144.17 41.7947C145.835 41.7947 146.844 41.2894 146.844 39.5966C146.844 38.0295 145.558 37.4752 143.288 36.4134C141.774 35.68 140.186 34.6715 140.186 32.3966C140.186 29.7443 142.456 28.4821 144.702 28.4821C146.267 28.4821 147.502 28.7593 148.26 29.2134C148.337 29.2902 148.311 31.2602 148.26 31.2602H148.135C147.353 30.0215 146.267 29.3414 144.653 29.3414C143.265 29.3414 142.206 30.0748 142.206 31.3881C142.206 32.9786 143.165 33.3582 144.956 34.243C146.949 35.228 149.016 36.213 149.016 38.4367C149.016 41.4429 146.544 42.6305 144.172 42.6305C142.407 42.6305 141.044 42.3021 140.034 41.7713L140.032 41.7691Z" fill="#001E5F"/>
<path d="M151.961 39.168V29.8978H149.917V29.4928L154.106 26.0324C154.182 25.9322 154.485 26.0324 154.485 26.1326C154.434 26.9407 154.51 27.9513 154.485 28.7849H158.522C158.648 28.7849 158.371 29.8957 158.371 29.8957H154.485V39.0145C154.485 40.3535 154.938 41.2383 156.401 41.2383C157.359 41.2383 158.192 40.7841 158.646 40.5304C158.697 40.5048 158.771 40.9355 158.722 41.0357C158.217 41.8693 156.931 42.6262 155.266 42.6262C152.768 42.6262 151.961 41.2873 151.961 39.1659V39.168Z" fill="#001E5F"/>
<path d="M159.436 35.7077C159.436 31.4138 161.833 28.4843 165.566 28.4843C169.099 28.4843 171.066 30.8594 171.015 34.8506H161.984C162.036 38.8419 163.926 40.8886 166.399 40.8886C169.048 40.8886 170.108 39.9548 170.915 39.1467C171.041 39.0465 171.066 39.4495 170.992 39.6265C170.387 40.8886 168.52 42.6327 165.771 42.6327C161.835 42.6327 159.438 39.9036 159.438 35.712L159.436 35.7077ZM161.984 34.1407L168.266 33.887C168.266 30.755 167.334 29.1879 165.492 29.1879C163.65 29.1879 162.136 30.7038 161.984 34.1385V34.1407Z" fill="#001E5F"/>
<path d="M124.535 41.6711V32.2986C124.535 29.5461 123.223 28.5099 120.953 28.5099C119.213 28.5099 117.118 29.3435 115.857 30.5801H115.781V22.8258C115.781 22.7746 115.6 22.6489 115.551 22.6489L111.931 25.6444L111.92 26.0559C112.425 26.1817 112.727 26.2584 113.232 26.4098C113.257 27.5206 113.232 28.5824 113.232 29.6676V38.9634C113.232 40.0251 113.257 40.8588 113.232 41.6668H111.895V42.2958H117.19V41.6668H115.832V31.2837C116.639 30.5247 118.102 29.9959 119.541 29.9959C121.434 29.9959 121.988 30.9554 121.988 32.951V38.9634C121.988 40.0102 121.988 40.8225 121.965 41.6668H120.583V42.2958H125.878V41.6668H124.537L124.535 41.6711Z" fill="#001E5F"/>
<path d="M85.5475 41.671H84.5019C84.5019 41.671 84.1569 41.2339 83.9568 40.961C82.0403 38.1318 80.6264 35.8334 79.2636 33.1556V33.0788C81.7869 32.0682 82.8963 30.3263 82.8963 28.1794C82.8963 25.2755 80.7776 23.3545 74.9494 23.3396H69.7025V23.9685H71.0632V37.473C71.0632 38.5284 71.1207 40.6455 71.0738 41.6668H69.5662V42.2957H75.5988V41.6668H73.8123V33.6332C74.4937 33.7334 75.6031 33.759 76.5379 33.7845C77.7772 36.0808 79.4041 38.9633 81.0629 41.6668H80.0046V42.2957H85.7008V41.6668H85.5453L85.5475 41.671ZM73.8165 33.0298V28.1794C73.8165 27.092 73.7399 24.9536 73.8165 23.9685C78.5587 23.9685 80.0727 25.1476 80.0983 28.7849C80.0983 32.4477 76.7423 33.2814 73.8165 33.0277V33.0298Z" fill="#001E5F"/>
<path d="M179.735 28.5226C178.226 28.5226 176.867 29.8829 176.213 31.1408H176.088L176.113 28.6228C176.109 28.4437 175.741 28.4864 175.717 28.4864L172.28 31.371C172.161 31.4627 172.267 31.8209 172.291 31.8209C172.768 31.9211 173.123 31.9979 173.626 32.1727V38.974C173.626 39.9867 173.647 40.8864 173.626 41.6689H172.265V42.2978H177.787V41.6689H176.19V31.9488C176.944 30.8913 178.102 30.563 179.209 30.563C179.938 30.563 180.468 30.7634 180.87 30.9148H180.945C180.97 30.9148 181.045 28.9 180.97 28.8254C180.694 28.5994 180.342 28.5226 179.737 28.5226H179.735Z" fill="#001E5F"/>
<path d="M106.622 15.741C105.817 16.5469 104.761 17.4786 102.12 17.4786C99.6544 17.4786 97.7699 15.4382 97.7188 11.4598H106.724C106.775 7.48139 104.812 5.11267 101.292 5.11267C97.5697 5.11267 95.1805 8.03359 95.1805 12.3148C95.1805 16.5959 97.5697 19.2162 101.494 19.2162C104.237 19.2162 106.098 17.4786 106.701 16.2186C106.775 16.0416 106.752 15.6386 106.626 15.741H106.622ZM101.213 5.81838C103.049 5.81838 103.979 7.37905 103.979 10.5025L97.7167 10.7541C97.8679 7.33001 99.401 5.81838 101.213 5.81838Z" fill="#001E5F"/>
<path d="M115.879 5.11267C114.369 5.11267 113.01 6.47293 112.357 7.73084H112.231L112.256 5.21288C112.252 5.03379 111.884 5.07643 111.86 5.07643L108.423 7.9611C108.304 8.05278 108.411 8.41097 108.434 8.41097C108.911 8.51117 109.267 8.58793 109.769 8.76276V15.564C109.769 16.5768 109.791 17.4765 109.769 18.2589H108.409V18.8879H113.93V18.5425C113.941 18.4913 113.941 18.4402 113.93 18.4188V18.2568H112.333V8.53676C113.087 7.47926 114.245 7.15092 115.353 7.15092C116.081 7.15092 116.611 7.35133 117.014 7.50271H117.088C117.114 7.50271 117.188 5.48792 117.114 5.41329C116.837 5.1873 116.485 5.11054 115.881 5.11054L115.879 5.11267Z" fill="#001E5F"/>
<path d="M123.325 10.8543C121.539 9.97377 120.585 9.59426 120.585 8.00801C120.585 6.69893 121.641 5.96763 123.025 5.96763C124.635 5.96763 125.717 6.64776 126.496 7.88222H126.622C126.673 7.88222 126.696 5.91859 126.622 5.84184C125.868 5.38771 124.635 5.11054 123.074 5.11054C120.836 5.11054 118.572 6.37059 118.572 9.01434C118.572 11.2807 120.157 12.2892 121.667 13.0183C123.93 14.0758 125.212 14.6302 125.212 16.1909C125.212 17.8773 124.207 18.3826 122.546 18.3826C120.759 18.3826 119.729 17.4509 118.621 16.1653H118.47C118.396 16.1653 118.294 18.2803 118.419 18.357C119.424 18.8858 120.783 19.2141 122.544 19.2141C124.907 19.2141 127.373 18.0308 127.373 15.0331C127.373 12.8179 125.31 11.8351 123.323 10.8522L123.325 10.8543Z" fill="#001E5F"/>
<path d="M80.3174 7.27887C80.3429 6.52413 80.2918 5.844 80.3174 5.21291C80.3174 5.16174 80.1662 5.03595 80.1406 5.03595C78.8587 5.38774 78.1283 5.59028 76.4929 5.99324C76.4184 5.99324 76.4418 6.42179 76.4674 6.42179C76.9444 6.54758 77.3234 6.59875 77.826 6.77358C77.8515 7.88225 77.826 8.91416 77.826 9.99725V15.5641C77.826 16.5491 77.826 17.4829 77.8047 18.259H76.4461V18.7728C76.4461 18.7877 76.4461 18.8026 76.4461 18.8133V18.8879H81.71V18.259H80.3131V7.27887H80.3174Z" fill="#001E5F"/>
<path d="M79.0331 3.12347C79.8636 3.12347 80.5173 2.46892 80.5173 1.66301C80.5173 0.857087 79.8636 0.202545 79.0331 0.202545C78.2026 0.202545 77.5745 0.857087 77.5745 1.66301C77.5745 2.46892 78.2282 3.12347 79.0331 3.12347Z" fill="#001E5F"/>
<path d="M131.317 3.12347C132.147 3.12347 132.801 2.46892 132.801 1.66301C132.801 0.857087 132.147 0.202545 131.317 0.202545C130.486 0.202545 129.858 0.857087 129.858 1.66301C129.858 2.46892 130.512 3.12347 131.317 3.12347Z" fill="#001E5F"/>
<path d="M132.598 7.27884C132.624 6.5241 132.573 5.84397 132.598 5.21288C132.598 5.16171 132.447 5.03592 132.421 5.03592C131.14 5.38771 130.409 5.59025 128.774 5.99321C128.699 5.99321 128.723 6.42176 128.748 6.42176C129.225 6.54755 129.583 6.59872 130.088 6.77355C130.113 7.88222 130.088 8.91413 130.088 9.99722V15.564C130.088 16.5362 130.107 17.485 130.088 18.2589H128.725V18.8879H133.989V18.2589H132.598V7.27884Z" fill="#001E5F"/>
<path d="M143.19 16.9584C142.737 17.21 141.908 17.6641 140.952 17.6641C139.494 17.6641 139.04 16.7836 139.04 15.4489V6.35567H142.913C143.039 6.35567 143.19 5.247 143.065 5.247H139.04C139.066 4.4155 138.989 3.40916 139.04 2.60325C139.04 2.50304 138.738 2.40283 138.663 2.50304C138.084 3.05737 135.871 4.92079 134.487 5.95271C134.413 6.02733 134.436 6.35567 134.487 6.35567H136.525V15.5981C136.525 17.7131 137.33 19.0478 139.819 19.0478C141.48 19.0478 142.762 18.2931 143.265 17.4616C143.316 17.3614 143.239 16.9328 143.19 16.9584Z" fill="#001E5F"/>
<path d="M55.6159 0H55.5393V0.275036C55.535 0.343261 55.5329 0.413619 55.5393 0.473317V0.631089H55.8544C55.8778 0.631089 55.8991 0.631089 55.9204 0.631089H57.4259V11.8372C57.4259 16.7473 54.7343 18.1076 52.0428 18.1076C48.8486 18.1076 46.2763 16.6215 46.2763 12.3659V4.76089C46.2763 3.6778 46.2252 1.61397 46.2763 0.631089H48.1119V0H41.7045V0.628957H43.5081V12.2124C43.5081 17.2249 47.111 19.1374 51.3358 19.1374C55.3348 19.1374 58.4033 17.3997 58.4033 11.7839V5.01034C58.4267 3.49658 58.3543 1.87408 58.4033 0.628957H60.3666V0H55.6117H55.6159Z" fill="#001E5F"/>
<path d="M95.1762 6.01667V5.38771H91.5732V6.01667H93.0936C92.7061 7.28524 91.9885 9.3107 91.2325 11.5344L89.7739 15.6898H89.7228L87.4848 9.67102C87.0695 8.52184 86.5819 7.04645 86.2795 6.01667H87.8808V5.38771H82.4445V6.01667H83.3707L88.4409 19.0393H89.2458L92.4144 10.4258C92.9978 8.89068 93.6792 7.00381 94.0412 6.01667H95.1762Z" fill="#001E5F"/>
<path d="M156.48 5.38771H153.041V6.01667H154.446C154.155 7.0827 153.831 8.14446 153.128 10.3767C152.475 12.2913 151.895 14.0545 151.242 15.9926H151.191C150.411 13.675 149.681 11.4086 148.927 9.16785C148.539 8.07624 148.19 6.99741 147.873 6.01667H149.432V5.38771H144.038V6.01667H145.026L149.809 19.3164C149.557 20.0477 149.281 20.7257 148.778 21.3568C148.324 21.9112 147.899 22.3632 146.791 22.3632C146.086 22.3632 145.558 22.0348 145.056 21.6574H144.981C144.856 21.6574 144.804 23.0433 144.981 23.1179C145.233 23.2437 145.812 23.3695 146.465 23.3695C147.698 23.3695 148.678 22.8152 149.459 21.8323C150.039 21.0775 150.616 19.9433 151.272 18.0052L154.089 10.0228C154.711 8.29797 155.134 6.98675 155.498 6.01667H156.482V5.38771H156.48Z" fill="#001E5F"/>
<path d="M58.4583 29.9341H56.6718C56.6462 29.9341 56.6462 29.3307 56.6718 29.3307L58.4583 28.7764V28.0963C58.4583 24.4696 61.201 22.7576 63.6392 22.7576C64.8721 22.7576 65.2043 22.8578 65.6579 23.0348C65.7835 23.0603 65.7579 24.798 65.6579 24.798H65.5578C64.9296 24.169 64.4697 23.6403 63.4646 23.6403C61.8036 23.6403 61.0243 24.6722 61.0243 26.5121V28.8297H64.4207C64.5208 28.8297 64.3206 29.9384 64.2439 29.9384H61.0243V41.6263H62.6085V42.3043H57.0998V41.6391C57.0636 41.6391 58.4583 41.6391 58.4583 41.6391V29.9405V29.9341Z" fill="#001E5F"/>
<path d="M73.6159 8.91627C73.6159 6.12114 72.3085 5.13826 70.0704 5.13826C68.3094 5.13826 66.1715 5.96977 64.913 7.20423H64.8385V5.21502C64.8385 5.16385 64.6873 5.03806 64.6362 5.03806C63.152 5.44101 62.7751 5.56681 61.0652 5.99535C61.0141 5.99535 61.0141 6.42389 61.0396 6.42389C61.5421 6.54968 61.8999 6.60085 62.3769 6.77568C62.4024 7.88435 62.3769 8.91627 62.3769 9.99936V15.5662C62.3769 16.5682 62.4003 17.4807 62.3769 18.2611H61.0183V18.89H66.2886V18.5745C66.2929 18.5191 66.2929 18.47 66.2886 18.4359V18.2611H64.9386V7.90994C65.769 7.15519 67.2277 6.62644 68.6352 6.62644C70.5219 6.62644 71.0755 7.58373 71.0755 9.57294V15.5662C71.0755 16.5768 71.0755 17.4381 71.0542 18.2611H69.7127V18.89H74.9553V18.2611H73.6159V8.9184V8.91627Z" fill="#001E5F"/>
<path d="M17.1712 29.1154C17.3735 29.3179 17.8015 29.4778 18.3083 29.512C19.0281 29.561 19.6307 29.3393 19.652 29.0152C19.6733 28.7039 19.1473 28.4118 18.4617 28.3479C18.4255 28.3393 18.3893 28.3329 18.3488 28.3351C18.3318 28.3351 18.3147 28.3351 18.2977 28.3372C18.1444 28.3308 17.9996 28.3372 17.8633 28.3542C17.8015 28.3564 17.7398 28.3585 17.6759 28.3606C17.2947 28.3756 16.8944 28.3905 16.4983 28.4139V27.4993L16.7666 26.8682C16.7666 26.8682 16.4536 26.4269 16.1534 26.4269C15.8531 26.4269 15.4933 26.8682 15.4933 26.8682L15.7616 27.4993V28.4715C14.2731 28.6229 12.9869 28.9981 12.9806 30.094C12.9742 31.0961 14.2156 31.3391 15.7616 31.369V32.3113C14.5478 32.3817 13.8579 32.8465 13.8387 33.6183C13.8195 34.3922 14.8225 34.6332 15.7616 34.695V35.9465C15.3144 36.0339 14.9843 36.0702 14.9758 36.0702C14.7735 36.0894 14.6245 36.2663 14.6436 36.4667C14.6628 36.6543 14.8949 36.7098 15.0823 36.7098C15.1589 36.7098 15.4102 36.6885 15.7616 36.6245V37.9251L16.1534 38.2534L16.4983 37.9251V36.4582C16.6708 36.4113 16.8497 36.3559 17.0328 36.2919C17.6269 36.083 18.0124 35.5862 17.9634 35.0681C17.9187 34.5948 17.3863 34.1662 16.4983 34.0277V33.0149C17.9357 32.9211 18.7938 32.4542 18.7938 31.6504C18.7938 30.8466 17.348 30.6803 16.4983 30.6547V29.158C16.7283 29.141 16.9562 29.1261 17.1734 29.1154H17.1712ZM14.5968 33.5138C14.6053 33.2047 15.259 33.0853 15.7594 33.0469V33.9616C14.7629 33.8784 14.5925 33.7185 14.5968 33.516V33.5138ZM17.2585 35.1662C17.2969 35.3709 17.0307 35.6075 16.7709 35.6928C16.6793 35.7226 16.5878 35.7504 16.4962 35.7759V34.7462C16.9732 34.8165 17.2266 35.002 17.2585 35.1683V35.1662ZM17.8633 31.5417C17.9889 31.6483 18.089 31.8444 17.793 32.0107C17.497 32.177 17.0073 32.2708 16.4962 32.2964V31.3732C16.9988 31.369 17.6695 31.3732 17.8633 31.5417ZM15.7594 30.6462C14.0282 30.6121 13.6833 30.2326 13.6939 29.9917C13.7109 29.578 14.6734 29.352 15.7594 29.2263V30.6462Z" fill="#001E5F"/>
<path d="M4.06938 5.01462H4.08641L5.08511 7.28953H5.58126L6.57995 5.01462H6.59699V7.28953H7.28905V3.75244H6.44154L5.33851 6.23842H5.32786L4.22483 3.75244H3.37732V7.28953H4.06938V5.01462Z" fill="#001E5F"/>
<path d="M11.1216 6.66482H9.42232V5.82052H10.9853V5.16811H9.42232V4.37499H11.0769V3.75243H8.74091V7.28951H11.1216V6.66482Z" fill="#001E5F"/>
<path d="M14.674 6.66482H13.1025V3.75243H12.4211V7.28951H14.674V6.66482Z" fill="#001E5F"/>
<path d="M16.4796 3.75244H15.7982V7.28953H16.4796V3.75244Z" fill="#001E5F"/>
<path d="M18.6515 7.13174C18.9262 7.28951 19.2307 7.36839 19.5629 7.36839C19.8951 7.36839 20.1996 7.28951 20.4743 7.1296C20.749 6.97183 20.9662 6.75223 21.128 6.47293C21.2878 6.19363 21.3687 5.87808 21.3687 5.52843C21.3687 5.17877 21.2878 4.86109 21.128 4.58179C20.9683 4.30036 20.749 4.08076 20.4743 3.92299C20.1996 3.76308 19.8951 3.6842 19.5629 3.6842C19.2307 3.6842 18.9262 3.76308 18.6515 3.92085C18.3768 4.07863 18.1575 4.29823 17.9957 4.57753C17.8338 4.85896 17.7529 5.17664 17.7529 5.53056C17.7529 5.88448 17.8338 6.20003 17.9957 6.48146C18.1575 6.76076 18.3747 6.98036 18.6515 7.136V7.13174ZM18.6153 4.90587C18.7133 4.72251 18.8453 4.57753 19.0114 4.47306C19.1775 4.36859 19.3628 4.31742 19.5672 4.31742C19.7716 4.31742 19.9569 4.37072 20.1208 4.47945C20.2848 4.58606 20.4147 4.73317 20.5105 4.91653C20.6042 5.10202 20.6532 5.30456 20.6532 5.52843C20.6532 5.75229 20.6042 5.96337 20.5084 6.14672C20.4126 6.33008 20.2805 6.47293 20.1166 6.5774C19.9526 6.68187 19.7695 6.73304 19.5672 6.73304C19.3649 6.73304 19.1818 6.68187 19.0135 6.57953C18.8453 6.47719 18.7133 6.33435 18.6153 6.15099C18.5174 5.96763 18.4684 5.76082 18.4684 5.52843C18.4684 5.29603 18.5174 5.09136 18.6153 4.908V4.90587Z" fill="#001E5F"/>
<path d="M23.1193 6.0252H23.5324L24.3757 7.28951H25.1444C25.1444 7.28951 24.4034 6.19789 24.2501 5.97403V5.96976C24.3991 5.93139 24.5333 5.86742 24.6525 5.78214C24.7718 5.69686 24.8697 5.5796 24.9442 5.43035C25.0188 5.28111 25.0571 5.10202 25.0571 4.89094C25.0571 4.57753 24.9783 4.33447 24.8207 4.16604C24.6632 3.99761 24.4949 3.88674 24.3118 3.83344C24.1308 3.78014 23.9647 3.75455 23.8157 3.75455H22.4379V7.29164H23.1193V6.02733V6.0252ZM23.1193 4.36646H23.7007C23.8625 4.36646 24.0094 4.4091 24.1436 4.49438C24.2756 4.57966 24.3438 4.71611 24.3438 4.90587C24.3438 5.03805 24.3097 5.14466 24.2415 5.22141C24.1734 5.29816 24.0904 5.35147 23.9967 5.38345C23.903 5.4133 23.8007 5.42822 23.6943 5.42822H23.1215V4.36646H23.1193Z" fill="#001E5F"/>
<path d="M27.0247 6.35567H28.3705L28.7218 7.26819H29.4394L28.1021 3.78227H27.3164L25.9791 7.26819H26.6754L27.0225 6.35567H27.0247ZM27.6976 4.58179H27.7061L28.1298 5.71179H27.2632L27.6976 4.58179Z" fill="#001E5F"/>
<path d="M32.2942 24.6956V0H-0.000456389V24.6956C0.00593185 25.0197 -0.164421 28.043 2.35467 31.0257C4.17319 33.1812 15.4442 41.7201 15.9212 42.0847L16.1447 42.2553L16.3683 42.0847C16.8453 41.7201 28.0929 33.1599 29.9348 31.0257C32.422 28.1453 32.2921 25.0069 32.2899 24.6956H32.2942ZM31.5574 0.727032V10.1635H0.734191V0.727032H31.5574ZM2.91045 30.5503C0.557449 27.7338 0.766132 24.9493 0.732061 24.7553V10.8906H15.7785V22.248L3.98793 31.595C3.50668 31.1622 3.12765 30.8104 2.91045 30.5481V30.5503ZM16.1469 41.3363C14.816 40.3172 7.92308 35.0212 4.54584 32.0854L16.1469 22.8876L27.7479 32.0854C24.3685 35.0212 17.4778 40.3172 16.1469 41.3363ZM29.3833 30.5503C29.1533 30.7997 28.7871 31.1643 28.3058 31.5971L16.5153 22.2502V10.8927H31.5596V24.717C31.5596 24.717 31.6532 28.0856 29.3833 30.5524V30.5503Z" fill="#001E5F"/>
<path d="M7.84252 21.8387V21.9112H8.64957V21.8387C8.70493 21.7044 8.91574 21.2844 9.40764 21.2844H12.6529V14.5492H9.3395C8.98601 14.5492 8.55374 14.6921 8.24498 14.9458C7.93621 14.6921 7.50394 14.5492 7.15046 14.5492H3.8371V21.2844H7.08232C7.57421 21.2844 7.78503 21.7044 7.84039 21.8387H7.84252ZM9.3395 15.2762H11.8458V20.5552H9.40764C9.10952 20.5552 8.85825 20.6277 8.64957 20.7386V15.7155C8.64957 15.4617 9.10526 15.2762 9.34163 15.2762H9.3395ZM4.64414 15.2762H7.15046C7.38683 15.2762 7.84252 15.4617 7.84252 15.7155V20.7386C7.63384 20.6277 7.38257 20.5552 7.08445 20.5552H4.64627V15.2762H4.64414Z" fill="#001E5F"/>
<path d="M26.7514 14.2613C26.2446 14.2613 25.8912 14.6194 25.8912 15.1333C25.8912 15.2697 25.8954 15.4744 25.9018 15.613H25.6889V15.1205H25.065V15.613H24.6582V15.1205H24.0343V15.613H23.6276V15.1205H23.0037V15.613H22.7758C22.7822 15.4744 22.7865 15.2697 22.7865 15.1333C22.7865 14.6194 22.433 14.2613 21.9262 14.2613C21.4194 14.2613 21.0659 14.6194 21.0659 15.1333H21.6898C21.6898 14.9798 21.7963 14.8561 21.9283 14.8561C22.0604 14.8561 22.1668 14.9798 22.1668 15.1333C22.1668 16.1375 21.9134 16.8133 21.6664 17.4679C21.4428 18.0627 21.232 18.6235 21.232 19.3526C21.232 19.7534 21.3236 20.1436 21.5024 20.5103C21.6685 20.8515 21.9049 21.1606 22.2009 21.425C22.2477 21.4655 22.2967 21.5081 22.3478 21.5465H21.6984L21.7069 22.1947H26.975L26.9665 21.5465H26.332C26.3831 21.506 26.432 21.4655 26.4789 21.425C26.777 21.1606 27.0112 20.8515 27.1773 20.5103C27.3562 20.1415 27.4478 19.7513 27.4478 19.3526C27.4478 18.6298 27.2391 18.0862 27.0198 17.5105C26.7706 16.8602 26.513 16.1886 26.513 15.1333C26.513 14.9798 26.6194 14.8561 26.7514 14.8561C26.8835 14.8561 26.9899 14.9798 26.9899 15.1333H27.6139C27.6139 14.6194 27.2604 14.2613 26.7536 14.2613H26.7514ZM23.0058 21.1819C22.2946 20.764 21.8559 20.069 21.8559 19.3547C21.8559 18.7663 22.0348 18.293 22.2414 17.7408C22.4053 17.308 22.5884 16.8176 22.6949 16.2206H23.0037V21.1819H23.0058ZM23.6297 21.4484V16.2206H24.0364V21.5316C23.9002 21.5145 23.7618 21.4868 23.6297 21.4506V21.4484ZM24.6582 21.5294V16.2206H25.065V21.4463C24.9308 21.4847 24.7945 21.5124 24.6582 21.5294ZM25.9806 16.2206C26.0892 16.8496 26.2787 17.3485 26.4469 17.7877C26.6492 18.3164 26.826 18.7748 26.826 19.3547C26.826 20.0626 26.3916 20.7555 25.691 21.1734V16.2206H25.9827H25.9806Z" fill="#001E5F"/>
</g>
<defs>
<clipPath id="clip0_54853_225">
<rect width="181" height="66" fill="white"/>
</clipPath>
</defs>
</svg>
