<svg xmlns="http://www.w3.org/2000/svg" viewBox="0 0 240 180" role="img" aria-label="panelpack">
  <defs>
    <linearGradient id="bg" x1="0" y1="0" x2="1" y2="1">
      <stop offset="0" stop-color="#f5f7f6"/>
      <stop offset="1" stop-color="#e1ebec"/>
    </linearGradient>
  </defs>
  <rect width="240" height="180" fill="url(#bg)"/>
  <!-- 2x2 panels -->
  <g>
    <rect x="20" y="18" width="90" height="66" rx="6" fill="#126f77"/>
    <text x="30" y="38" fill="#fff" font-family="Inter,sans-serif" font-size="16" font-weight="700">A</text>
    <line x1="30" y1="70" x2="100" y2="70" stroke="#fff" stroke-opacity="0.5" stroke-width="1"/>
    <line x1="30" y1="60" x2="90" y2="52" stroke="#fff" stroke-opacity="0.7" stroke-width="1.5"/>

    <rect x="130" y="18" width="90" height="66" rx="6" fill="#22757d"/>
    <text x="140" y="38" fill="#fff" font-family="Inter,sans-serif" font-size="16" font-weight="700">B</text>
    <circle cx="170" cy="62" r="12" fill="none" stroke="#fff" stroke-opacity="0.6" stroke-width="1.5"/>
    <circle cx="190" cy="68" r="8" fill="none" stroke="#fff" stroke-opacity="0.6" stroke-width="1.5"/>

    <rect x="20" y="96" width="90" height="66" rx="6" fill="#22757d"/>
    <text x="30" y="116" fill="#fff" font-family="Inter,sans-serif" font-size="16" font-weight="700">C</text>
    <rect x="32" y="134" width="10" height="18" fill="#fff" fill-opacity="0.65"/>
    <rect x="46" y="128" width="10" height="24" fill="#fff" fill-opacity="0.65"/>
    <rect x="60" y="120" width="10" height="32" fill="#fff" fill-opacity="0.65"/>
    <rect x="74" y="138" width="10" height="14" fill="#fff" fill-opacity="0.65"/>

    <rect x="130" y="96" width="90" height="66" rx="6" fill="#126f77"/>
    <text x="140" y="116" fill="#fff" font-family="Inter,sans-serif" font-size="16" font-weight="700">D</text>
    <path d="M140 150 Q160 130 180 138 T215 128" stroke="#fff" stroke-opacity="0.7" stroke-width="1.8" fill="none"/>
  </g>
</svg>
